<svg width="874" height="875" viewBox="0 0 874 875" fill="none" xmlns="http://www.w3.org/2000/svg">
<path d="M190.114 274.266C188.129 280.069 187.671 281.596 185.991 288.011C185.685 289.538 185.838 289.691 186.143 289.996C188.587 289.996 191.947 289.996 194.391 289.996C194.849 290.302 194.849 290.302 192.558 300.84C192.1 303.741 192.1 303.741 198.667 303.894C199.889 303.589 199.889 303.589 205.998 296.716C206.914 295.8 207.067 295.8 208.441 295.647C210.732 295.189 212.565 292.134 213.328 290.76C217.299 283.582 214.397 283.582 211.037 283.582C210.274 283.276 210.274 283.276 212.106 274.571C212.565 272.127 212.565 272.127 198.82 272.127C198.82 272.127 198.667 271.975 198.514 271.975C198.361 270.906 202.179 260.673 206.761 251.662C207.372 250.441 207.372 250.288 207.372 249.677C205.539 249.677 203.248 249.524 201.416 249.524C202.485 247.997 204.012 246.012 205.234 244.637H204.776C203.707 246.164 202.027 248.15 200.958 249.524H199.889L198.056 251.968H199.125C195.765 256.702 192.863 260.673 188.434 267.24C187.06 269.378 185.685 271.669 185.838 272.891C187.213 272.891 189.045 273.044 190.42 273.044C190.42 273.655 190.42 273.655 190.114 274.266ZM188.74 267.393C191.947 262.506 194.696 258.382 199.278 252.121C200.958 252.121 203.249 252.121 204.928 252.121C205.081 252.426 205.081 252.426 204.776 253.19C202.485 258.23 195.001 274.418 196.987 274.876C210.427 274.876 210.427 274.876 210.121 276.251C207.983 286.178 207.983 286.178 209.357 286.331C213.176 286.331 214.092 286.331 211.954 290.302C211.496 291.065 210.579 292.592 209.357 292.898C207.983 292.898 207.372 292.898 205.692 294.731C200.347 300.992 200.347 300.992 199.736 300.992C193.78 300.992 193.78 300.992 194.085 299.465C196.834 287.4 196.834 287.4 195.765 287.247C193.321 287.247 189.503 288.469 187.518 287.094C187.518 286.789 187.518 286.636 187.518 286.178C189.198 280.222 189.503 278.847 191.642 272.586C192.1 271.364 191.947 271.211 191.947 270.753C191.947 270.753 191.794 270.6 191.642 270.6H187.213C187.213 270.295 187.06 269.989 188.74 267.393Z" fill="url(#paint0_linear)"/>
<path d="M226.463 233.183C226.921 232.572 239.291 217.758 242.957 215.009C249.677 210.274 249.829 210.274 250.593 209.969C252.12 209.053 253.8 209.816 254.716 209.664C256.702 209.358 257.313 208.442 260.825 205.082C262.964 202.944 264.338 201.722 265.713 200.958C266.324 200.653 266.934 200.5 267.545 200.5C281.749 200.5 281.443 200.653 290.912 200.653C291.828 200.653 291.828 201.569 290.301 203.402C288.316 205.693 287.247 206.914 285.567 207.678C268.003 214.703 268.003 214.703 264.491 218.827C252.884 233.336 252.884 233.336 251.662 233.488C241.582 233.488 240.971 233.488 233.182 233.336C232.419 233.336 231.961 232.572 232.113 231.808C233.182 229.059 237.917 227.685 237.153 224.936C237.001 224.478 236.848 224.478 236.237 224.478H234.71L232.724 226.769C233.182 226.769 233.946 226.769 234.404 226.769C235.015 226.769 233.488 227.99 232.877 228.449C230.739 230.587 228.753 231.961 229.823 234.557C229.975 235.016 230.586 235.474 231.961 235.474C239.444 235.474 243.873 235.474 247.233 235.474C253.647 235.627 253.647 233.641 256.702 229.823C266.323 216.842 267.087 216.383 268.92 215.467C286.941 207.984 286.941 207.984 290.148 204.471C291.676 202.638 295.188 198.667 293.05 198.057H268.767C266.629 198.057 265.56 198.973 261.436 202.638C258.535 205.54 256.549 207.067 255.786 207.525C255.022 207.831 253.495 207.525 252.884 207.525C251.815 207.678 251.509 207.831 250.44 208.442C242.804 213.482 242.193 213.94 239.139 217.147C232.877 223.867 230.739 226.463 225.394 232.725L226.463 233.183Z" fill="url(#paint1_linear)"/>
<path d="M269.989 230.434C269.378 230.739 268.92 230.739 268.462 230.739C260.978 230.739 260.826 230.739 257.16 235.932L254.411 239.903H255.633C259.451 234.099 260.062 232.878 262.047 232.725C264.644 232.572 266.171 232.725 267.545 232.725C269.836 232.725 270.294 232.114 271.669 231.045C286.636 218.674 286.941 218.522 288.163 218.369C292.439 217.605 306.643 218.216 311.072 218.216C314.89 218.216 315.501 217.605 316.57 216.842C321.304 213.023 323.442 211.344 324.97 210.274C326.344 209.358 327.413 209.511 328.329 209.511C348.947 209.358 355.667 209.664 358.874 209.664C360.707 209.664 360.86 210.274 361.012 211.649C362.234 230.739 362.845 230.129 365.594 230.587C373.841 230.739 373.841 230.739 373.383 233.641C369.87 247.997 369.87 247.997 367.274 248.608C362.692 248.608 361.776 248.608 359.485 251.357C340.547 277.167 340.7 277.626 339.326 277.626C334.897 277.778 328.482 277.626 325.58 277.473C319.777 277.32 319.166 278.389 317.639 280.68C306.032 298.243 301.756 304.658 299.923 307.254C298.854 308.781 298.09 309.087 296.716 309.087C280.985 308.934 280.68 308.629 280.069 307.865C272.585 293.203 272.738 292.593 273.196 290.607C275.029 285.262 275.945 283.582 278.083 283.429C282.054 283.124 282.665 283.429 284.192 282.36C287.705 279.764 290.454 271.058 285.261 271.058C275.487 271.058 271.211 271.058 268.462 270.906C265.56 270.753 265.56 270.295 265.407 268.462C264.796 257.772 266.018 251.357 266.171 248.761C266.476 246.623 266.629 245.095 266.782 244.179C266.935 242.194 265.865 242.041 264.338 242.041H259.604L258.077 244.485C264.185 244.485 264.491 244.485 264.338 245.706C262.964 255.786 262.506 264.491 263.116 270.906C263.269 273.044 264.949 273.808 266.782 273.808C277.167 273.808 280.832 273.655 283.276 273.655C284.803 273.655 285.109 274.113 285.261 274.418C286.025 275.946 285.109 279.611 282.512 280.833C280.527 281.749 278.694 281.291 277.014 281.749C274.723 282.36 273.807 284.193 272.433 287.4C270.294 292.745 270.753 293.203 271.364 295.647C278.389 311.53 278.694 311.683 280.832 311.836C287.4 312.141 291.676 312.141 294.578 312.294C300.228 312.447 300.228 311.988 301.908 309.545C318.708 281.902 320.235 280.68 322.221 280.222C324.206 279.764 332.606 279.916 335.66 280.069C341.616 280.375 342.075 279.153 343.755 277.167C361.623 251.51 361.623 251.204 363.761 251.204C369.718 250.899 371.092 251.204 372.925 245.401C374.605 238.987 375.979 234.71 376.285 232.114C376.743 229.059 374.91 228.296 372.467 228.296C365.289 228.296 365.289 228.296 364.83 226.769C363.609 218.216 363.456 213.634 363.303 210.733C363.15 207.373 361.623 207.831 361.012 207.678C327.26 207.678 327.108 207.373 324.97 208.9C315.806 216.078 315.806 216.078 314.89 216.231C289.079 216.231 289.079 216.231 286.789 217.758C270.6 230.281 270.6 230.129 269.989 230.434Z" fill="url(#paint2_linear)"/>
<path d="M434.013 416.146C430.806 415.993 430.806 415.993 419.963 398.583C418.436 396.445 417.825 394.765 412.785 394.612C408.356 394.459 401.025 394.459 387.585 394.459C387.891 395.834 387.891 396.139 387.891 397.666C395.374 397.666 405.607 397.666 412.938 397.666C415.992 397.819 415.992 397.819 426.835 415.23C429.737 419.353 430.959 419.353 439.97 419.353C441.344 419.353 442.871 419.048 444.857 417.673C445.01 417.673 460.129 406.066 476.776 392.626L475.249 390.03C465.627 397.666 459.213 402.706 443.177 415.077C441.65 416.146 441.65 416.146 434.013 416.146Z" fill="url(#paint3_linear)"/>
<path d="M371.244 399.194C372.618 397.972 373.688 397.514 377.506 397.514H385.906C385.753 396.139 385.753 395.681 385.447 394.307C382.546 394.307 378.117 394.307 375.062 394.307C373.382 394.459 372.008 394.001 367.731 398.125C363.302 402.401 354.597 409.884 339.325 426.378C337.798 428.211 336.118 430.502 335.965 437.375C335.965 444.094 336.27 455.243 337.187 478.457H340.088C339.783 469.752 338.867 459.061 338.867 438.138C338.867 433.709 339.019 431.113 342.532 427.142C346.503 422.713 353.528 415.382 371.244 399.194Z" fill="url(#paint4_linear)"/>
<path d="M479.067 390.794C483.191 387.434 488.842 383.005 492.965 379.645L491.132 377.201C487.009 380.561 481.664 384.838 477.54 388.198L479.067 390.794Z" fill="url(#paint5_linear)"/>
<path d="M370.787 363.914C380.714 376.438 380.714 376.438 383.31 376.743C390.03 376.743 395.375 376.896 398.582 376.896C403.317 376.896 404.386 375.827 404.844 373.689C404.997 372.772 405.302 367.58 405.302 366.969C405.455 365.9 405.608 365.594 406.066 364.984C417.062 352.918 417.062 352.918 418.436 352.613H433.403C433.403 355.056 433.403 358.416 433.403 361.013C433.556 365.136 433.861 365.442 439.665 372.009C442.414 374.758 442.414 374.758 453.715 374.758C457.075 374.758 459.061 373.536 461.199 369.718C462.268 367.885 463.948 365.289 461.963 362.082C460.894 360.249 458.908 358.264 456.312 355.209C454.632 353.071 454.785 351.391 454.785 348.948C454.937 346.962 455.243 345.282 456.465 344.06C457.534 342.991 459.214 342.686 460.741 342.686C464.864 342.533 472.195 342.533 484.566 342.991C486.551 343.144 486.551 343.144 498.311 353.529C500.449 355.667 500.449 355.667 501.06 365.747C501.06 369.26 501.06 369.26 493.271 375.674L495.104 378.118L500.449 373.689C501.518 372.62 503.656 370.634 503.503 365.9C503.503 363.762 503.198 360.86 503.045 358.722C502.587 353.987 502.587 353.987 489.3 342.228C487.926 341.159 487.315 340.548 482.733 340.395C478.457 340.242 472.195 340.242 459.672 340.242C453.716 340.242 451.577 344.519 451.73 351.086C452.036 355.209 452.646 355.973 457.228 361.013C458.145 362.234 459.366 363.609 459.366 365.136C459.366 367.122 458.45 368.496 456.77 370.482C455.701 371.703 455.243 371.856 445.316 371.856C442.872 371.703 442.872 371.703 437.374 365.594C435.694 363.456 435.694 363.456 435.694 352.613H442.719V349.558H435.694C435.694 345.588 435.694 346.809 435.694 342.686H432.945C432.945 346.657 432.945 345.435 432.945 349.558C425.767 349.558 421.644 349.558 419.047 349.558C415.84 349.558 415.229 350.322 414.16 351.391C402.248 364.525 402.248 364.525 402.095 367.274C401.942 372.162 401.789 373.842 399.04 373.842C382.088 373.689 382.088 373.842 381.019 372.925C371.703 361.318 371.703 361.318 371.703 359.791C372.467 347.878 372.466 347.878 373.383 346.809C396.291 321.61 403.928 313.21 406.982 310.461C408.509 309.087 408.815 308.628 411.258 308.628C432.487 308.628 440.123 308.781 444.705 308.934C448.217 309.087 448.828 310.614 448.981 311.988C449.134 316.876 448.676 321.457 454.479 321.763C466.086 322.068 466.086 321.763 467.461 320.999C476.471 314.432 481.511 311.225 484.108 308.934C487.162 306.338 487.009 305.116 487.009 303.283C486.551 295.647 485.94 290.607 485.787 287.247C485.482 281.902 484.108 281.291 480.137 281.291C466.85 281.291 466.85 281.291 465.323 282.36C455.243 291.065 455.243 291.065 454.937 292.592C453.563 297.174 453.563 297.174 452.188 297.48C440.429 297.48 440.429 297.48 439.512 296.105C435.694 289.233 435.236 288.316 431.723 282.055L429.585 283.429C438.596 300.076 438.596 300.076 441.65 300.381C453.257 300.381 453.257 300.381 454.174 299.923C457.381 298.396 456.006 294.425 457.992 292.287C467.308 284.345 467.308 284.193 468.224 284.193C473.722 283.887 477.388 283.887 479.526 284.04C482.733 284.193 482.886 285.109 483.038 287.094C483.802 295.647 484.26 300.076 484.413 302.52C484.566 305.116 483.038 306.643 482.275 307.254C464.712 320.083 465.781 319.014 464.712 319.166C452.036 319.166 452.036 319.166 451.577 316.112C451.425 311.072 451.425 307.101 446.232 306.49C424.393 306.49 415.535 306.338 410.8 306.338C407.44 306.338 406.677 307.407 405.913 308.17C370.481 345.588 370.481 346.504 370.176 349.406C369.259 361.624 369.259 361.624 370.787 363.914Z" fill="url(#paint6_linear)"/>
<path d="M613.464 274.113L614.533 276.862C618.962 276.862 624.766 276.862 629.195 276.862C630.875 276.709 630.722 277.931 632.097 269.226C632.249 268.92 632.249 267.699 633.166 267.24C633.624 267.088 634.693 267.088 635.609 267.088C638.816 267.088 644.925 267.088 657.296 267.088L655.769 264.491C647.674 264.491 641.26 264.491 633.166 264.491C632.249 264.491 630.722 264.491 630.264 266.629C629.959 267.851 629.5 269.989 628.889 273.197C628.737 274.113 628.737 274.113 613.464 274.113Z" fill="url(#paint7_linear)"/>
<path d="M574.978 297.938C577.116 297.785 578.032 297.785 585.21 277.931C585.668 276.709 585.668 276.709 612.853 276.862L611.784 274.113C603.995 274.113 593.61 274.113 585.821 274.113C585.363 274.113 584.141 274.266 583.53 275.64C580.628 281.596 578.796 287.858 576.199 293.967C575.588 295.189 575.588 295.189 562.607 295.189L563.218 297.938H574.978Z" fill="url(#paint8_linear)"/>
<path d="M724.647 362.387C724.495 355.209 723.426 342.839 723.12 340.548C722.204 334.897 715.331 317.181 715.026 316.417C713.957 313.516 713.804 313.21 713.804 312.905C713.651 312.294 714.415 312.294 714.415 312.294C714.873 312.294 715.179 311.836 715.026 311.53C714.415 308.934 711.513 300.992 711.36 300.687C711.208 300.381 711.513 300.229 711.666 300.229C712.124 300.076 711.666 298.854 708.764 293.203L708.611 292.898C706.779 289.538 705.862 288.011 705.252 287.094C704.793 286.484 704.03 286.025 703.266 286.025C702.655 286.025 701.892 286.025 701.281 286.025C700.823 286.025 700.212 285.873 699.906 285.414C699.448 284.956 698.837 284.04 697.615 282.055C696.241 279.611 694.714 277.167 685.55 266.324C683.87 264.491 683.87 264.491 656.991 264.339L658.518 266.935C667.223 266.935 676.54 266.935 681.732 266.935C683.107 266.935 684.023 266.935 684.787 267.088C685.092 267.24 685.856 267.546 686.467 268.157C689.216 271.211 694.561 278.084 695.324 279C697.004 281.291 698.379 284.193 699.906 286.484C700.517 287.4 700.975 288.011 701.739 288.469C702.655 288.927 704.03 288.622 705.252 288.622C705.71 288.622 706.015 288.774 706.321 289.08C706.779 289.691 707.39 290.607 708.611 292.898C709.986 295.647 710.444 296.411 710.291 296.716C710.139 296.869 709.68 296.869 709.833 297.174C709.833 297.327 712.735 305.574 713.651 308.018C713.804 308.323 713.499 308.781 713.193 308.781C712.582 308.781 712.277 309.545 712.277 310.156C712.277 310.767 712.735 311.53 713.193 312.599C714.568 316.265 717.775 324.512 721.593 336.882C723.12 341.922 723.731 351.697 723.731 362.845C723.731 362.998 723.731 364.831 722.968 364.984C722.204 365.289 721.746 364.525 721.44 364.22C720.982 363.456 720.829 363.609 714.72 343.297C714.11 341.006 714.109 341.006 714.109 336.424C714.109 335.355 713.804 334.439 713.346 333.064C712.735 330.773 711.819 328.483 710.291 323.748C708.611 318.403 708.153 312.752 706.932 307.254C704.946 299.312 702.35 297.174 700.059 295.952C698.99 295.494 697.921 295.036 697.463 295.342C697.004 295.494 696.852 295.952 697.157 297.632C701.281 316.876 702.35 331.995 700.823 351.849C700.517 353.377 700.517 353.377 692.881 353.377C691.812 348.642 691.201 346.809 689.368 339.937H688.146C689.674 345.129 689.826 345.74 691.659 353.377H680.052L680.816 356.431H692.423C695.63 369.871 695.63 371.398 695.477 373.689C695.172 382.089 694.561 384.532 692.117 385.143C689.674 385.754 687.688 385.449 686.161 385.754C682.801 386.518 682.343 389.878 682.648 397.819C683.259 412.481 684.328 414.466 682.19 418.284C663.711 446.996 664.169 444.094 663.863 448.523C662.336 469.294 662.489 477.235 656.227 478.305H654.7L654.395 481.512C656.38 481.512 662.642 481.512 664.322 468.683C665.085 457.687 665.543 453.563 665.696 450.356C666.002 446.233 666.918 445.774 667.834 444.4C676.234 431.113 680.358 426.226 683.259 421.644C686.161 417.062 685.55 414.466 685.397 410.342C683.87 388.808 684.328 388.198 687.841 388.045C695.019 387.587 696.088 388.045 696.699 381.172C697.157 374.452 697.157 372.925 696.546 369.26C695.63 364.525 695.477 364.067 693.797 356.431H700.823C701.433 356.278 702.655 356.584 702.961 353.835C704.335 344.519 703.113 320.388 698.684 299.465C698.684 299.16 698.532 298.396 698.379 298.091C698.226 296.716 699.601 296.869 700.975 298.091C704.335 300.992 705.71 308.323 707.542 318.708C707.848 320.236 708.001 320.846 711.36 330.621C712.735 334.439 712.888 334.592 712.582 337.493C712.582 337.646 712.277 339.173 713.04 341.922C713.804 344.671 715.637 351.238 719.149 361.929C720.829 367.274 722.204 367.122 723.426 366.511C724.037 366.816 724.647 365.9 724.647 362.387Z" fill="url(#paint9_linear)"/>
<path d="M436.457 277.931L437.984 280.069C445.315 273.807 445.773 273.349 450.049 269.531C451.119 268.768 451.119 268.768 496.936 268.768C497.852 268.92 497.852 268.92 512.055 276.098C514.041 277.473 514.193 278.236 514.652 281.444C514.957 284.193 513.583 284.956 512.361 285.109C510.986 285.262 503.503 288.622 511.75 297.938C513.735 300.076 513.735 300.076 530.229 300.076C532.673 299.77 532.673 299.77 536.644 292.898C537.713 290.607 537.56 289.843 536.797 286.025C536.338 282.36 536.644 282.36 544.127 282.36C547.029 282.665 547.029 282.665 549.778 295.036H551.916C551.305 292.287 550.542 288.774 549.931 286.025C547.945 279.764 545.502 279.611 538.324 279.611C533.589 280.222 534.506 284.956 535.117 288.163C535.269 289.996 535.269 289.996 531.604 295.952C530.688 297.021 530.688 297.021 515.568 297.021C514.041 296.869 514.041 296.869 511.444 293.967C509.154 290.913 510.375 288.163 512.666 287.858C517.859 287.247 516.942 282.207 516.484 279.458C515.415 275.335 515.415 275.335 498.768 266.782C497.546 266.171 497.547 266.171 451.882 266.171C450.049 266.324 450.049 266.324 436.457 277.931Z" fill="url(#paint10_linear)"/>
<path d="M550.389 297.938C552.069 305.879 552.527 308.781 554.207 317.945H556.498C554.971 309.85 554.513 306.949 552.527 297.938H550.389Z" fill="url(#paint11_linear)"/>
<path d="M645.994 444.705C645.536 466.85 643.856 487.01 641.107 504.726C639.733 513.584 639.733 513.584 640.649 516.027C643.703 523.205 643.703 523.205 645.536 523.358C648.438 523.358 650.423 523.053 651.951 523.053C654.241 522.9 655.31 522.289 656.532 517.707C656.838 516.18 657.143 514.958 657.143 513.889C657.143 512.209 656.685 510.987 656.532 510.529C651.951 499.075 651.95 499.075 652.103 497.548C652.561 494.188 653.02 489.759 653.478 486.552H651.645C649.965 500.908 649.965 500.908 650.881 503.046C652.714 507.322 655.158 511.904 654.852 514.958C654.394 518.318 653.783 519.845 651.492 520.151C645.231 520.762 645.383 520.609 644.62 519.235C641.871 512.82 641.871 512.82 642.176 510.835C645.842 487.773 648.132 462.116 648.438 447.913C648.591 442.567 648.591 441.04 647.827 439.513C647.063 438.291 645.842 437.68 643.551 437.68C626.14 437.069 625.682 436.916 624.002 440.124C619.268 449.745 613.77 458.909 609.035 468.53C608.271 470.21 607.966 472.043 607.966 472.654C607.813 475.556 607.355 481.664 612.548 482.428H616.366L616.671 479.221C611.326 479.221 609.951 479.221 609.951 474.639C610.104 471.432 610.104 471.279 610.868 469.905C616.06 460.589 620.489 450.814 625.835 441.651C626.598 440.429 627.362 440.124 628.126 440.124C634.54 439.971 639.274 440.276 641.871 440.276C646.147 440.276 645.842 441.804 645.994 444.705Z" fill="url(#paint12_linear)"/>
<path d="M591.777 480.29C590.861 477.694 583.378 456.16 569.938 425.157C567.189 419.048 567.036 419.659 549.931 419.659C549.778 416.146 549.778 411.412 549.626 407.899H547.182C547.335 411.412 547.488 416.146 547.488 419.659H541.99C540.31 419.506 539.393 418.742 538.935 417.979C534.353 411.717 530.688 404.997 526.564 398.43C524.274 395.223 521.983 394.917 519.997 395.07C513.736 396.75 513.43 402.706 514.499 405.303C514.957 406.219 514.805 406.372 528.55 428.669C530.841 432.029 530.841 432.029 543.67 432.029V428.822H534.048C532.368 428.669 531.452 427.906 530.993 427.142C526.259 420.575 522.288 413.397 518.012 406.524C515.263 401.637 518.928 397.208 522.288 398.125C524.274 398.735 524.274 398.735 536.797 419.2C539.241 422.56 539.699 422.56 547.64 422.56C547.64 425.615 547.64 430.349 547.335 433.404C546.724 442.109 546.877 441.345 530.535 454.021C523.51 459.52 519.386 455.396 517.401 453.105C516.485 452.036 516.485 452.189 512.056 444.4C509.765 440.276 505.641 433.251 499.838 423.477C490.827 410.037 481.358 417.52 472.958 424.088C471.278 421.339 469.14 417.826 467.613 415.077L465.322 416.91C467.002 419.659 469.14 423.171 470.668 425.92L465.78 429.738L467.308 432.335L472.195 428.517C481.206 443.942 489.605 457.381 497.394 471.279C499.991 475.25 501.365 476.166 507.169 476.319C510.376 476.319 512.361 476.472 518.776 476.472C521.525 476.472 524.732 476.014 525.495 478.915C526.412 482.886 527.481 488.079 526.717 490.37C525.801 492.966 525.495 493.119 502.74 516.027C500.907 518.013 498.921 519.387 498.616 524.885C498.311 530.536 497.547 539.852 496.02 557.415C495.256 562.761 495.256 562.761 484.565 571.008C479.678 575.131 479.526 578.644 478.915 584.753H481.358L481.664 581.088C482.427 576.048 482.427 576.048 492.965 567.801C495.867 565.204 498.158 564.135 498.616 557.568C499.074 551.765 500.449 542.754 501.365 525.649C501.67 521.373 502.587 520.456 506.71 516.333C510.223 512.82 514.805 509.155 525.954 496.937C527.939 494.799 530.383 492.508 529.772 487.621C529.161 483.039 528.703 479.679 528.244 477.541C527.175 472.959 524.426 473.417 518.928 473.417C515.263 473.417 510.07 473.57 505.183 473.112C503.198 472.959 501.212 471.737 498.921 467.767C495.562 461.963 488.536 450.814 474.486 426.837C474.486 426.837 481.358 421.949 481.664 421.644C489.453 416.604 493.118 420.88 494.645 422.56C495.409 423.324 497.089 424.698 513.277 452.494C514.499 454.632 515.568 456.312 516.637 457.381C523.968 464.865 531.146 458.298 543.975 447.607C550.237 441.498 550.237 437.527 549.931 422.713H562.455C565.967 422.713 567.342 426.989 569.785 432.946C577.88 451.578 591.472 487.162 591.625 487.773C592.541 490.217 592.541 492.05 596.512 492.05C599.108 492.05 603.079 492.05 610.104 492.05L610.41 488.995H596.665C594.679 488.69 594.679 488.69 591.777 480.29Z" fill="url(#paint13_linear)"/>
<path d="M414.771 490.828C412.327 486.246 409.883 483.65 403.316 483.65C397.666 483.955 396.597 485.483 390.64 493.577C387.739 497.09 387.739 497.09 367.885 497.09C364.83 496.937 364.83 496.937 355.361 488.69C353.681 487.315 352.612 486.093 346.503 485.941C346.503 485.941 327.871 485.941 304.199 485.941L304.351 488.995C319.166 488.995 333.827 488.995 348.641 488.995C351.543 489.148 351.543 489.148 361.012 497.395C364.372 499.991 364.372 499.991 383.921 500.144C389.266 499.839 390.335 498.311 396.444 490.217C398.887 487.315 401.026 486.704 404.08 486.704C408.051 487.01 409.884 488.232 412.785 493.577C414.16 496.021 415.229 498.464 417.672 503.657H420.727C417.062 495.562 416.909 494.951 414.771 490.828Z" fill="url(#paint14_linear)"/>
<path d="M478.609 588.113C478.303 591.167 478.303 591.32 465.169 608.731C462.115 612.854 461.198 612.396 447.148 612.243C442.871 612.243 443.635 612.243 424.086 572.993C421.337 566.579 421.337 566.579 434.472 550.085C437.526 545.808 438.595 541.227 435.388 533.591C432.944 528.093 429.584 521.678 422.254 506.406H419.199C426.835 522.136 430.195 529.009 433.097 536.492C435.693 543.212 433.555 546.267 423.17 559.859C422.101 561.234 417.672 565.357 420.879 572.535C420.879 572.535 432.181 595.902 439.206 609.036C441.191 612.701 441.955 614.687 446.384 614.84C448.98 614.992 452.951 614.84 459.213 614.84C464.405 614.534 464.405 614.534 478.456 594.68C479.525 593 480.594 591.167 481.052 587.807V587.502H478.761L478.609 588.113Z" fill="url(#paint15_linear)"/>
<path d="M698.989 547.794H695.019L693.95 550.696C699.6 550.848 699.6 550.848 699.295 554.514C696.546 577.269 693.797 582.768 692.575 585.211C689.062 591.931 682.495 604.149 678.524 609.189C668.75 621.559 666.154 623.545 664.627 623.697C658.059 623.85 657.907 623.85 659.892 619.116C662.03 614.381 663.71 610.258 660.961 609.8C654.699 609.8 650.576 609.952 647.98 609.952C643.398 610.105 643.856 607.814 644.772 604.149C647.216 595.291 648.132 589.64 650.576 579.866C651.187 577.269 653.783 571.313 657.449 568.259C661.419 564.746 669.056 559.095 676.997 552.376C684.328 545.961 684.328 545.961 685.702 545.961C687.841 545.808 690.742 545.808 692.88 545.808C693.339 545.808 693.033 546.419 692.728 547.336C689.979 555.43 689.215 557.263 686.772 563.677H687.841C695.477 543.976 695.171 543.823 693.644 542.907C685.244 542.907 685.244 542.907 683.259 544.587C674.554 552.528 665.237 558.79 656.074 567.19C649.965 572.688 648.896 580.171 648.285 582.462C646.3 591.167 643.856 599.414 642.176 608.272C641.413 611.938 643.398 612.701 645.231 612.701C660.198 612.701 659.587 612.854 659.892 612.854C660.656 612.854 661.114 613.77 659.434 617.741C656.685 623.85 655.616 626.141 657.754 626.294C664.168 626.905 664.779 626.752 669.819 621.101C679.135 610.258 680.663 607.814 682.495 604.912C687.841 596.054 694.713 583.989 696.393 577.575C703.266 548.557 701.128 548.099 698.989 547.794Z" fill="url(#paint16_linear)"/>
<path opacity="0.4" d="M706.931 507.627H698.683L698.073 510.682C707.541 510.682 707.541 510.682 708.305 512.515C710.29 518.471 710.596 519.693 708.916 526.26C706.778 533.743 706.167 536.034 704.64 536.492C701.891 536.492 701.738 536.492 701.127 534.659C700.363 531.91 699.447 528.398 698.378 525.802C697.614 523.816 696.393 521.373 696.087 519.387C695.629 516.791 695.629 514.5 696.393 510.529L697.462 505.489H696.087C694.407 514.042 693.644 517.86 695.171 522.747C697.004 527.634 698.073 532.827 700.058 537.714C700.669 539.088 701.127 539.394 702.043 539.547C704.487 539.547 705.862 539.547 708.152 532.98C710.749 524.58 711.97 519.082 710.901 514.195C708.611 507.78 708.611 507.78 706.931 507.627Z" fill="#DEDEDE"/>
<path d="M705.251 396.292C704.03 393.848 702.655 393.39 700.975 393.543C699.601 393.543 697.921 394.154 697.157 395.681C696.241 397.514 696.546 399.346 696.699 406.219C696.852 418.284 697.31 421.797 695.935 424.393C682.801 448.371 680.816 447.76 679.136 448.065C677.914 448.371 676.387 448.218 675.012 448.982C672.721 450.356 671.194 452.189 670.278 460.894C669.209 470.057 668.903 474.486 668.14 481.664H669.82C673.027 451.731 673.485 451.425 677.303 450.814C680.052 450.509 682.343 450.662 684.176 447.913C691.354 436.611 695.477 430.349 697.31 426.073C699.295 421.491 699.143 421.033 698.837 416.299C698.073 401.485 698.226 398.125 698.532 397.056C698.837 395.681 700.823 394.765 702.35 395.528C703.266 395.986 704.182 397.666 705.251 400.721C709.07 412.633 709.222 413.55 709.528 416.91C710.597 436.305 709.681 438.902 708.153 442.567C703.266 451.883 697.615 461.505 693.797 466.087C692.575 467.614 691.354 468.988 689.521 469.141C683.87 469.599 681.579 469.599 678.219 469.447C672.11 468.988 672.263 470.668 671.805 475.25C671.194 481.664 671.041 482.886 670.125 490.37H671.805C674.096 472.196 674.096 472.196 675.623 471.89C692.575 472.348 692.575 472.348 694.714 469.447C711.819 443.636 711.819 439.971 711.819 433.251C711.819 415.841 710.75 412.175 709.986 409.884C707.542 402.706 706.473 398.735 705.251 396.292Z" fill="url(#paint17_linear)"/>
<path opacity="0.4" d="M603.842 229.823C606.744 229.823 607.508 230.281 608.271 231.045C618.504 239.445 619.726 240.056 620.795 241.43C622.627 243.721 624.765 247.386 622.475 247.844C604.759 247.844 605.522 247.844 605.064 247.692C604.759 247.692 603.231 247.539 600.33 243.11C598.802 240.819 596.512 237.001 595.137 234.71H592.999C596.512 240.666 598.65 244.79 600.482 247.081C602.621 249.983 604.453 250.135 606.897 250.135C624.918 250.135 624.918 250.135 625.376 249.983C626.293 249.677 626.904 247.844 624.765 244.026C623.544 241.583 621.558 239.292 619.267 237.154C607.813 227.532 607.813 227.532 605.828 227.38C596.512 227.38 587.043 227.38 577.727 227.38L579.101 229.67C593.763 229.823 600.33 229.823 603.842 229.823Z" fill="#DEDEDE"/>
<path d="M421.796 263.575C439.817 263.575 439.817 263.575 442.872 261.742C458.45 251.204 458.755 250.899 458.755 243.11L458.602 240.972H456.464C456.77 244.943 456.923 248.608 452.646 252.121C439.817 260.979 439.817 260.979 436.763 261.131C432.334 261.131 426.378 261.437 421.949 261.131C412.633 260.521 409.884 248.608 417.672 242.041C424.392 236.848 424.392 236.848 427.447 236.696C437.374 236.696 450.814 236.696 460.741 236.696L460.588 234.252C424.392 234.252 424.392 234.252 421.185 236.543C419.811 237.612 417.978 238.834 416.756 239.903C408.204 246.623 408.204 262.048 421.796 263.575Z" fill="url(#paint18_linear)"/>
<path opacity="0.4" d="M347.572 302.061C337.95 308.934 337.95 308.934 337.034 308.934H319.013L318.402 311.836C338.103 311.836 338.103 311.836 339.63 310.767C350.779 302.672 350.779 302.672 351.543 299.771C351.543 299.771 353.223 293.051 347.572 292.287C329.245 292.287 329.245 292.287 327.412 293.509C315.805 302.825 315.805 302.825 314.889 306.49C312.751 316.57 311.834 322.068 310.46 330.315H312.751C316.874 305.269 317.333 304.81 319.013 303.283C329.245 295.036 329.245 295.036 330.314 294.883C335.354 294.883 342.074 294.578 347.114 294.883C350.015 295.342 350.321 299.923 347.572 302.061Z" fill="url(#paint19_linear)"/>
<path d="M308.169 345.435H310.46C310.918 342.075 311.529 337.646 312.14 334.439H309.849C309.238 337.646 308.627 342.075 308.169 345.435Z" fill="url(#paint20_linear)"/>
<path d="M469.14 236.543L468.834 234.252H463.336L463.489 236.543H469.14Z" fill="url(#paint21_linear)"/>
<path d="M521.524 269.226C524.731 273.502 525.037 274.113 527.175 274.266H531.757L531.146 271.669C525.648 271.669 525.648 271.669 524.884 270.753C522.44 267.546 522.44 267.546 522.288 266.782C518.928 251.663 518.775 251.663 519.386 251.052C521.524 248.761 524.731 246.165 527.175 243.874C531.909 239.445 532.52 239.292 532.826 239.292C544.585 239.292 544.585 239.292 545.349 239.903C550.847 244.637 550.847 244.637 552.221 244.79C556.345 244.79 556.345 244.79 556.803 245.095C558.025 245.859 558.941 248.303 557.261 248.608C552.527 248.608 550.389 248.761 549.32 248.761C548.251 248.761 547.487 249.066 546.876 249.372C541.836 252.732 537.255 256.55 532.978 260.979C532.52 261.437 531.909 262.659 532.367 264.797L532.978 267.24H534.964C534.2 264.186 533.895 263.27 534.658 262.659C536.949 260.215 539.545 258.077 542.142 255.939C547.487 251.357 548.251 251.204 549.014 251.204C552.527 250.899 554.512 250.899 556.498 250.899C559.552 250.899 560.774 249.983 560.163 247.692C559.858 246.623 559.094 242.652 555.581 242.652C551.458 242.652 550.847 242.499 550.083 241.888C544.738 237.154 544.738 237.154 543.211 237.154C537.866 237.154 534.658 237.001 532.826 237.154C531.298 237.307 530.84 237.307 529.924 238.223C525.342 241.888 520.608 246.012 517.553 249.524C517.095 249.983 516.637 251.052 517.095 253.037C520.913 268.309 520.913 268.309 521.524 269.226Z" fill="url(#paint22_linear)"/>
<path d="M684.328 619.116C678.372 625.836 672.11 631.792 666.46 638.664C654.853 652.41 646.3 660.809 635.457 670.584H635.762C649.202 658.519 657.296 649.813 666.765 638.664C667.376 638.054 677.608 626.599 684.328 620.338C684.939 619.727 686.008 619.879 685.55 620.643C684.939 621.254 677.761 630.265 676.997 631.028L660.961 647.064H659.74L657.601 649.355C659.434 649.508 659.281 649.813 664.321 644.926C674.096 635.152 676.845 632.861 678.066 631.334C680.663 627.974 684.786 623.239 686.314 621.101C686.925 620.185 687.077 619.879 687.077 619.574C686.772 618.658 684.939 618.352 684.328 619.116Z" fill="url(#paint23_linear)"/>
<path d="M232.266 224.63H227.531L225.546 227.074H230.128L232.266 224.63Z" fill="url(#paint24_linear)"/>
<path d="M144.908 365.747C143.228 365.747 141.09 365.747 139.104 365.747C138.799 365.747 138.493 365.442 138.493 364.984C141.853 348.031 148.573 331.995 151.017 326.497C151.169 326.344 151.169 326.192 151.322 326.039C151.475 325.886 151.933 325.886 152.239 325.886C152.391 325.886 152.544 325.886 152.544 326.192C152.697 326.344 152.697 326.497 152.544 327.261V327.413C151.475 333.828 151.017 339.631 150.406 349.711C150.253 351.697 149.948 353.682 149.184 357.042C147.657 363.151 145.061 373.536 142.77 386.976H143.381C144.45 380.714 146.282 370.176 149.795 357.042C150.711 353.529 151.169 351.697 151.322 348.031C151.628 340.853 152.239 332.453 153.613 325.581C157.126 319.319 161.097 313.21 164.151 306.643C164.762 305.269 165.373 304.047 165.984 302.825C168.733 302.978 171.482 302.978 184.005 302.978C185.838 303.589 185.838 303.589 178.049 325.275C174.383 336.882 176.98 336.882 182.936 336.882C180.798 344.213 180.492 344.977 179.118 350.322H180.34C182.325 342.839 182.478 342.075 184.158 336.882H190.572L191.489 333.828H185.074C185.99 330.926 187.212 327.108 188.281 324.359C190.114 319.625 190.419 319.166 197.597 311.072C199.736 308.934 198.972 308.934 206.761 308.934C208.594 308.934 209.357 310.156 209.204 313.516C208.899 317.028 207.525 321.915 203.096 326.803C199.277 331.232 198.819 333.37 195.154 346.962C192.252 359.638 197.75 359.791 201.416 359.638C203.859 359.485 205.081 358.722 206.455 357.195C209.357 353.682 210.732 347.115 212.106 341.77C215.008 332.453 217.299 332.453 225.699 332.453C226.004 332.453 226.92 332.453 227.684 333.37C231.349 337.341 234.709 341.617 237.917 345.893C239.291 347.726 239.444 349.864 239.138 352.155C238.527 356.889 237.458 362.235 237.306 362.387H239.596L241.124 354.14C241.735 350.322 242.193 347.115 240.055 344.213C236.542 339.631 232.877 335.508 229.364 331.079C227.99 329.552 227.226 329.093 219.437 330.01C212.106 330.773 210.732 340.242 208.899 347.268C206.15 356.736 203.096 356.736 198.667 356.736C193.627 356.278 195.765 348.795 199.277 336.271C200.805 331.69 202.026 330.315 204.623 327.413C210.426 320.694 211.495 312.447 211.19 309.545C210.732 306.032 210.732 306.032 202.026 306.032C199.736 306.185 198.972 307.101 191.947 315.348C188.281 319.777 187.518 322.526 183.7 333.981H179.271C175.605 332.912 178.965 324.817 184.311 311.53C187.823 302.214 186.296 300.84 185.838 300.687C185.532 300.534 185.532 300.534 167.053 300.381C169.191 295.8 170.107 293.203 169.802 291.829C169.649 291.676 169.496 291.676 169.038 291.829C168.58 291.829 168.885 290.913 169.496 289.385C171.634 284.498 174.842 280.069 176.522 274.877H175.911C175.911 274.877 173.62 279.153 173.314 279.764C171.024 284.04 167.816 290.302 165.831 295.494C164.762 297.785 164.456 299.007 163.693 300.992C163.387 301.756 163.387 302.061 163.235 302.367C163.235 302.825 163.387 303.13 163.846 303.13C164.304 303.13 164.762 303.13 165.22 303.13C161.86 310.308 158.195 316.723 156.515 319.166C155.293 320.999 154.377 322.526 153.613 323.748C153.613 323.595 153.46 323.595 153.308 323.595H152.391C152.086 323.595 151.933 323.748 151.78 323.901C151.322 324.664 150.253 326.803 149.031 330.01C145.824 337.493 140.173 352.307 137.424 367.58C137.424 367.58 137.119 368.649 137.424 369.107C137.424 369.107 142.159 369.107 144.144 369.107L144.908 365.747ZM164.915 300.076C164.762 299.618 165.525 297.174 167.053 293.509C169.496 287.705 173.162 280.985 174.994 277.32C174.689 278.084 174.689 278.084 173.925 279.611C171.329 284.498 167.205 292.898 167.511 294.272C167.664 294.578 167.969 294.272 168.427 294.425C168.733 294.578 168.733 295.647 166.595 300.076C166.136 300.229 165.678 300.229 164.915 300.076Z" fill="url(#paint25_linear)"/>
<path d="M295.188 664.169C295.646 664.322 297.631 664.78 297.631 664.78C294.577 660.657 289.079 652.715 285.566 647.064C284.955 646.148 283.886 644.01 283.886 641.872C283.581 633.777 286.482 614.229 297.02 588.876C297.631 587.196 298.089 585.211 297.173 581.24C291.675 558.943 291.675 558.943 289.384 547.488C289.079 546.114 288.926 545.808 288.468 544.434C288.01 545.197 287.551 546.267 287.093 547.03C288.926 556.194 291.064 566.426 295.035 581.24C295.798 584.753 295.798 584.753 292.897 591.931C288.162 603.385 281.901 623.697 281.442 641.413C281.442 642.941 281.901 644.01 283.733 647.37C285.413 650.73 288.773 655.311 295.188 664.169Z" fill="url(#paint26_linear)"/>
<path d="M285.719 543.67L286.941 541.532C286.635 541.074 286.177 540.31 285.261 539.394C275.639 528.551 269.072 521.067 257.465 506.711H254.563C260.825 514.5 269.378 525.038 284.192 541.532C284.803 542.143 285.261 542.754 285.719 543.67Z" fill="url(#paint27_linear)"/>
<path d="M298.7 666.613C298.547 666.307 296.867 666.46 296.715 666.155C298.242 668.14 300.38 670.889 301.907 672.722C303.74 675.318 304.351 676.235 304.504 677.609C304.656 678.831 303.587 678.678 303.282 678.525C301.602 678.067 298.089 676.082 277.166 657.755C275.944 656.686 273.653 654.395 273.348 654.09C271.973 652.868 250.897 628.89 230.738 575.742C229.822 573.299 229.669 572.077 226.004 567.953C223.102 564.746 216.993 558.332 208.593 549.474C202.484 543.059 194.848 501.213 192.252 475.708C191.182 467.919 190.877 464.101 184.768 463.643C181.103 463.338 175.605 463.49 166.899 463.49L167.205 466.698C172.245 466.698 178.812 466.698 184.157 466.698C185.226 466.698 186.448 467.003 187.364 467.614C190.113 469.752 189.961 473.417 190.877 481.664C192.252 495.257 195.612 520.304 203.4 544.434C204.775 548.557 205.997 550.543 210.426 554.819C213.327 557.721 217.756 562.455 225.087 569.481C227.989 572.535 227.989 572.841 231.349 581.393C237.763 598.193 249.065 625.072 269.835 652.715C274.417 658.977 292.744 672.875 298.242 677.304C302.976 680.816 304.656 680.664 305.267 680.358C306.336 679.9 307.711 678.22 303.74 672.875C302.06 670.889 300.38 668.598 298.7 666.613Z" fill="url(#paint28_linear)"/>
<path d="M160.485 463.49C159.111 463.338 146.435 446.385 141.547 434.167C140.631 432.029 140.326 431.113 140.02 428.058C138.951 420.575 143.075 390.488 143.075 390.183H142.464C141.395 397.361 139.562 407.899 138.951 422.408C138.646 430.655 138.798 437.375 159.263 465.17C160.332 466.545 160.333 466.545 165.983 466.545L165.678 463.338L160.485 463.49Z" fill="url(#paint29_linear)"/>
<path d="M193.626 445.927C197.139 446.08 197.292 446.843 199.582 469.752C200.651 480.137 203.859 480.748 205.386 481.359C206.455 481.817 208.746 481.97 211.189 481.97C214.244 481.97 216.535 481.664 231.502 481.817C232.571 481.817 235.625 481.817 237.763 484.719C239.901 487.621 243.872 492.66 252.272 503.351H255.174C249.065 495.562 246.163 491.897 239.291 482.428C237.611 480.29 236.694 478.915 230.585 479.068C226.156 479.068 215.007 479.679 208.288 479.068C202.637 478.61 202.331 472.043 200.651 455.243C199.582 445.011 198.666 443.483 194.542 443.178C192.862 443.025 190.419 443.178 187.975 442.72C182.935 441.803 183.394 434.778 184.005 420.88H182.477H184.005C189.808 420.88 197.444 420.88 203.248 420.88C205.386 420.728 205.386 420.728 215.618 408.968C218.826 404.844 218.826 404.539 220.658 389.114C221.575 383.005 221.575 383.005 234.403 372.467C235.167 371.703 237 370.329 238.68 366.511L239.138 365.442C238.527 365.442 237.458 365.442 236.847 365.442C236.083 367.122 235.778 368.343 233.182 370.787C231.502 372.314 228.447 374.452 224.171 377.965C219.589 382.394 219.131 386.059 218.062 398.277C217.451 403.164 217.451 403.164 206.76 415.84C205.08 417.673 205.08 417.673 184.31 417.673C184.463 414.466 184.768 410.19 185.074 406.982H183.546C183.241 410.19 182.935 414.466 182.783 417.673C177.896 417.673 171.328 417.673 166.441 417.673L166.289 420.88C171.176 420.88 177.743 420.88 182.63 420.88C182.325 429.127 182.325 429.127 182.325 433.404C182.172 445.927 185.532 445.622 193.626 445.927Z" fill="url(#paint30_linear)"/>
<path d="M550.39 297.938H552.528H560.317L559.553 295.036H551.917H549.779H546.419L547.03 297.938H550.39Z" fill="url(#paint31_linear)"/>
<path opacity="0.3" d="M561.997 227.685L563.218 229.976H576.963L575.589 227.685H561.997Z" fill="url(#paint32_linear)"/>
<path d="M683.106 324.206C684.023 327.108 685.397 330.926 686.314 333.828H687.535C686.619 330.926 685.397 327.108 684.328 324.206H683.106Z" fill="url(#paint33_linear)"/>
<path d="M666.765 511.598H668.445C669.82 503.962 670.125 502.282 671.194 495.257H669.514C668.292 502.74 667.987 504.42 666.765 511.598Z" fill="url(#paint34_linear)"/>
<path d="M678.525 583.226H679.594C682.496 576.964 683.107 575.59 685.856 569.175H684.787C682.038 575.59 681.427 576.964 678.525 583.226Z" fill="url(#paint35_linear)"/>
<path d="M700.517 485.025H699.143C698.074 492.355 697.921 493.883 696.699 501.061H698.074C699.295 493.73 699.601 492.203 700.517 485.025Z" fill="url(#paint36_linear)"/>
<path d="M616.519 488.995L616.213 492.05H626.904L627.21 488.995H616.519Z" fill="url(#paint37_linear)"/>
<path d="M478.915 585.059H473.722L473.569 587.808H478.609H481.053H499.685L499.991 585.059H481.206H478.915Z" fill="url(#paint38_linear)"/>
<path d="M553.596 380.562C552.375 381.325 546.266 385.601 546.571 396.75C547.335 396.75 548.251 396.75 549.015 396.75C548.862 388.198 553.138 382.394 559.705 381.936H576.199L575.894 378.882C556.498 378.882 556.498 378.882 553.596 380.562Z" fill="url(#paint39_linear)"/>
<path d="M414.465 283.429H424.24L424.392 280.68H414.618L414.465 283.429Z" fill="url(#paint40_linear)"/>
<path d="M549.168 271.516H536.187L536.797 274.113H549.932L549.168 271.516Z" fill="url(#paint41_linear)"/>
<path d="M669.82 409.273C668.598 393.237 667.682 379.492 658.06 378.576C648.286 378.576 635.304 378.576 625.53 378.576L625.835 381.63C659.129 381.63 659.129 381.63 659.893 381.936C660.045 381.936 664.78 382.852 666.154 394.001C666.918 400.568 667.071 401.943 667.682 409.273H669.82Z" fill="url(#paint42_linear)"/>
<path d="M225.088 303.741C223.866 306.948 220.812 315.501 226.31 316.57C233.641 316.57 233.641 316.57 234.252 319.013C236.084 326.65 236.39 327.108 236.695 327.566C238.07 330.926 243.873 332.759 246.928 325.122C247.539 323.595 248.302 321.152 249.066 319.013C254.869 300.381 255.022 299.923 253.953 296.41C250.593 286.789 250.593 286.789 248.608 286.636C241.888 286.636 241.888 286.636 241.735 284.498C241.124 278.542 240.972 274.265 240.819 272.127C240.513 268.92 239.902 269.073 238.986 269.073H231.808L230.434 271.669C239.139 271.669 238.681 271.211 238.833 273.96C239.444 288.927 239.75 289.08 242.499 289.385C249.066 289.385 249.066 289.385 249.677 291.065C252.426 299.159 252.426 299.159 251.509 302.367C245.859 320.235 245.553 321.762 245.553 321.762C243.721 328.024 239.444 329.857 237.917 324.053C235.473 313.668 235.168 313.821 232.724 313.515C225.088 313.515 223.408 313.515 225.699 306.032C226.921 302.519 230.128 293.356 225.241 293.509C220.201 293.661 218.216 293.509 221.117 286.331C227.99 271.516 233.335 262.2 237.306 255.48H236.084C225.088 273.96 220.354 284.192 218.674 289.538C216.688 295.799 219.285 295.952 220.507 296.258C225.546 296.41 227.379 296.41 225.088 303.741Z" fill="url(#paint43_linear)"/>
<path d="M246.622 394.612C258.534 378.576 258.534 378.576 259.145 375.063C259.298 374.605 261.283 363.609 253.342 362.387H239.444H237.611H223.561L222.95 365.441H236.542H238.528C254.105 365.441 254.105 365.441 254.869 366.052C258.534 369.26 257.771 375.674 254.869 379.797C251.509 384.074 248.607 388.808 244.942 392.779C243.262 394.612 242.04 394.612 241.277 394.764H227.073L226.768 397.972C243.873 398.124 243.873 398.124 246.622 394.612Z" fill="url(#paint44_linear)"/>
<path d="M283.276 554.361C284.498 552.223 285.872 549.168 286.941 547.03L288.316 544.434C292.745 536.187 294.577 533.132 293.661 526.26C293.203 523.205 292.134 516.18 285.719 507.78C283.428 504.725 280.679 503.656 275.64 503.656C269.378 503.656 261.131 503.656 255.022 503.656H252.12H234.251V506.711H254.564H257.465C280.221 506.711 280.069 505.642 282.97 509.002C290.301 516.943 293.203 529.314 289.385 536.95L286.941 541.532L285.719 543.67C278.847 556.957 278.847 556.957 274.265 557.262H257.771L258.535 560.164C280.069 560.164 279.763 560.775 283.276 554.361Z" fill="url(#paint45_linear)"/>
<path d="M278.847 649.355C271.821 639.123 268.767 633.472 262.811 622.17H260.978C265.407 630.265 272.28 642.788 279.152 652.562C286.025 662.337 293.203 666.918 300.533 667.071H302.824L301.297 664.933C298.548 664.933 290.301 666.002 278.847 649.355Z" fill="url(#paint46_linear)"/>
<path d="M194.696 252.121H196.987L198.973 249.677H196.529L194.696 252.121Z" fill="url(#paint47_linear)"/>
<path d="M166.748 463.49C164.762 436.306 164.762 434.778 160.18 434.473H157.126V437.68C161.25 437.68 163.388 436 164.304 447.76C164.762 453.716 165.068 455.549 165.526 463.49L165.831 466.698C166.289 472.043 166.289 472.654 167.206 480.443H168.428C167.817 475.097 167.817 474.486 167.053 466.698L166.748 463.49Z" fill="url(#paint48_linear)"/>
<path d="M250.746 241.888H246.011L244.332 244.332H249.066L250.746 241.888Z" fill="url(#paint49_linear)"/>
<path d="M292.592 273.96H302.519L303.436 271.364H293.509L292.592 273.96Z" fill="url(#paint50_linear)"/>
<path d="M306.642 273.96H312.14L312.904 271.364H307.406L306.642 273.96Z" fill="url(#paint51_linear)"/>
<path d="M303.894 384.685H306.184C307.406 369.107 308.323 361.777 309.85 349.864H307.559C305.574 365.136 304.963 372.467 303.894 384.685Z" fill="url(#paint52_linear)"/>
<path d="M337.951 494.493C338.104 497.547 338.409 501.671 338.562 504.878H341.006C340.853 501.824 340.548 497.7 340.395 494.493H337.951Z" fill="url(#paint53_linear)"/>
<path d="M567.8 517.707C565.051 511.598 565.051 511.598 565.051 510.377C566.273 499.075 566.273 499.075 568.869 498.617C571.16 498.617 572.993 498.617 572.993 502.282C572.687 505.642 572.229 510.224 571.771 513.584H574.062C575.437 501.366 575.436 501.366 575.131 499.686C574.826 498.006 573.909 496.02 570.855 495.562C568.411 495.562 564.593 495.562 563.524 502.282C562.608 512.515 562.608 512.515 563.371 514.347C566.884 521.984 566.884 521.984 569.48 522.136H576.964L577.422 519.082C568.411 519.234 568.411 519.234 567.8 517.707Z" fill="url(#paint54_linear)"/>
<path d="M734.116 497.7C732.436 497.7 732.436 497.7 731.825 498.922C726.174 511.14 726.174 511.14 725.716 512.973C724.342 518.318 724.189 519.082 722.051 526.565H722.662C724.189 521.22 724.342 520.456 726.327 512.973C726.632 511.751 726.785 511.14 727.091 510.682C728.465 507.933 730.298 504.267 731.52 501.518C731.672 501.06 731.825 501.06 731.978 500.908C732.436 500.908 732.894 500.908 733.352 500.908C733.505 501.518 733.352 502.74 733.2 503.809C732.741 506.1 732.589 506.711 732.131 507.78C728.771 514.653 728.771 514.653 728.007 517.707C727.396 519.998 726.938 520.456 726.632 520.609H725.411L724.647 523.663C726.174 523.663 726.174 523.663 726.785 522.594C728.16 520.303 728.312 517.554 729.382 515.264C732.589 508.544 732.589 508.544 733.352 505.184C734.88 499.533 734.574 498.006 734.116 497.7Z" fill="url(#paint55_linear)"/>
<path d="M614.534 276.862L613.464 274.113C612.395 271.67 610.868 268.31 609.799 265.866H608.119C609.188 268.31 610.715 271.67 611.784 274.113L612.854 276.862C623.391 302.978 636.526 335.355 615.908 336.883H603.232L603.843 339.937C621.712 339.937 621.712 339.937 624.461 336.73C630.722 329.246 629.042 319.167 627.21 312.294C622.475 297.174 619.268 288.469 614.534 276.862Z" fill="url(#paint56_linear)"/>
<path d="M376.433 384.331L373.535 384.074L373.383 387.128C381.63 387.128 385.753 390.947 385.601 398.277C385.295 409.121 385.295 416.299 385.143 423.324H387.892C388.197 395.223 388.197 395.223 387.892 394.306C386.963 388.016 381.698 385.384 376.433 384.331Z" fill="url(#paint57_linear)"/>
<path d="M357.347 387.128H369.412L369.565 384.074H357.499L357.347 387.128Z" fill="url(#paint58_linear)"/>
<path d="M680.816 300.84C679.136 301.909 679.136 305.421 679.136 306.643C679.136 308.476 679.136 311.072 679.136 312.905L680.816 314.89C680.969 306.338 680.969 306.338 681.122 305.421C681.58 303.589 682.954 303.436 683.412 303.283H689.98L688.758 300.381C681.427 300.381 681.427 300.381 680.816 300.84Z" fill="url(#paint59_linear)"/>
<path d="M689.979 300.381L691.201 303.283H693.797L692.575 300.381H689.979Z" fill="url(#paint60_linear)"/>
<path d="M497.09 380.562L495.104 377.965L493.271 375.522C487.926 368.496 487.773 368.344 484.719 368.191C472.807 368.191 470.363 368.191 469.905 375.827C470.058 380.103 470.057 380.714 471.127 382.852C472.348 384.991 474.181 387.892 475.403 390.183L476.93 392.779C478.152 394.918 479.832 397.667 481.054 399.652L483.344 397.972C482.123 395.834 480.443 393.085 479.221 391.099L477.694 388.503C472.806 380.256 472.807 380.256 472.654 378.729C472.501 375.063 472.501 371.856 476.472 371.398C486.552 371.398 486.552 371.398 487.926 373.078L491.286 377.507L493.119 379.951C496.784 384.838 498.617 387.129 503.962 387.587H517.86L517.707 384.532C499.991 384.074 499.991 384.074 497.09 380.562Z" fill="url(#paint61_linear)"/>
<path d="M454.632 536.034C448.676 523.511 444.705 515.874 442.567 510.987C439.359 503.351 436.763 503.657 432.792 503.657H420.88H417.825H414.007V506.711H419.2H422.254C436.763 506.711 436.763 506.711 438.596 510.071C443.33 519.387 446.843 526.718 449.287 531.758C450.356 534.049 451.577 537.256 453.105 539.394C456.923 544.739 460.741 545.503 464.101 545.808H469.293L469.446 542.907C461.657 542.754 458.297 542.754 454.632 536.034Z" fill="url(#paint62_linear)"/>
<path opacity="0.4" d="M404 503.656V506.711H410.262V503.656H404Z" fill="url(#paint63_linear)"/>
<path d="M654.241 649.355H656.379L658.517 646.912H656.379L654.241 649.355Z" fill="url(#paint64_linear)"/>
<path d="M323.442 664.933C317.333 664.933 309.086 664.933 302.977 664.933L304.504 667.071C310.613 667.071 318.708 667.071 324.664 667.071L323.442 664.933Z" fill="#FFCF96"/>
<path d="M158.042 387.129C153.613 387.129 147.809 387.129 143.533 387.129H142.922H138.493L138.035 390.183H142.464H143.075C147.504 390.183 153.308 390.183 157.584 390.183L158.042 387.129Z" fill="#FFCF96"/>
<path d="M252.273 241.888L250.746 244.332H256.397L257.924 241.888H252.273Z" fill="#FFCF96"/>
<path d="M665.849 516.638C665.391 518.623 664.932 521.067 664.474 523.052H666.154C666.612 521.067 667.07 518.623 667.529 516.638H665.849Z" fill="#FFCF96"/>
<path d="M529.313 539.699C527.328 539.852 526.106 540.31 524.273 541.838C518.623 547.336 516.179 549.474 509.917 555.43L511.292 557.721C516.026 553.139 520.761 548.557 525.648 544.128C528.702 541.379 533.284 542.448 532.979 548.71C530.535 568.106 530.535 568.106 528.702 570.244C515.263 584.906 515.263 584.906 513.125 585.058H502.434L502.128 587.807C515.415 587.807 515.415 587.807 518.012 585.211C532.215 569.939 532.215 569.939 532.979 566.273C536.186 547.183 537.408 540.768 529.313 539.699Z" fill="#FFCF96"/>
<path d="M615.756 378.882C605.371 378.882 591.625 378.882 581.24 378.882L581.546 381.936C591.931 381.936 605.829 381.936 616.214 381.936L615.756 378.882Z" fill="#FFCF96"/>
<path d="M484.592 236.696H471.305L471 234.252H484.134L484.592 236.696Z" fill="#FFCF96"/>
<path opacity="0.3" d="M658.518 267.24L656.991 264.644C646.606 247.081 637.748 235.779 632.402 228.907H631.333C642.33 242.804 648.286 252.121 655.769 264.644L657.297 267.24C660.656 273.196 663.405 278.389 665.391 282.36H666.613C663.558 276.098 660.656 270.906 658.518 267.24Z" fill="#FFCF96"/>
<path d="M251.357 598.04H249.83C252.731 604.76 254.717 609.036 257.16 613.771H258.688C255.328 607.356 253.495 603.08 251.357 598.04Z" fill="#FFCF96"/>
<path d="M222.492 237.154C217.605 243.568 216.536 244.942 212.565 250.441H213.329C218.063 243.873 219.133 242.499 223.256 237.154H222.492Z" fill="#FFCF96"/>
<path fill-rule="evenodd" clip-rule="evenodd" d="M188.74 154.225C191.03 152.087 194.543 152.392 196.681 154.683C198.819 156.974 198.514 160.486 196.223 162.625C194.306 164.414 191.534 164.492 189.427 163.128C118.927 226.365 76.1934 313.09 69.0043 407.746C61.5208 504.42 92.0656 598.498 154.682 672.416C217.91 747.098 306.49 792.763 404.08 801.01C501.671 809.104 596.512 778.865 671.194 715.637C745.265 653.02 790.777 565.357 799.482 468.836C808.025 374.111 780.237 281.593 721.026 207.449C718.729 208.452 715.946 207.918 714.262 205.845C712.43 203.402 712.735 199.889 715.179 197.904C717.622 196.071 721.135 196.377 723.12 198.82C724.759 200.838 724.733 203.583 723.299 205.597C782.978 280.355 810.929 373.645 802.384 469.141C793.678 566.426 747.709 654.853 673.027 718.081C605.675 774.588 522.136 805.133 434.93 805.133C424.545 805.133 414.007 804.675 403.622 803.759C305.268 795.512 216.077 749.542 152.239 674.249C89.1638 599.567 58.4664 504.878 65.9498 407.441C73.2879 311.896 116.31 224.574 187.384 160.884C186.263 158.669 186.714 155.87 188.74 154.225Z" fill="url(#paint65_linear)"/>
<path opacity="0.5" fill-rule="evenodd" clip-rule="evenodd" d="M832.012 325.123C836.594 324.053 841.328 326.803 842.55 331.537C843.56 335.326 841.751 339.219 838.417 341.144C862.181 442.801 847.032 548.414 795.359 639.733C743.82 731.078 660.936 798.444 561.598 830.313C561.699 834.138 559.257 837.737 555.43 838.885C550.848 840.26 545.961 837.663 544.586 833.082C543.212 828.5 545.808 823.613 550.39 822.238C554.188 821.099 558.197 822.689 560.24 825.876C658.492 794.307 740.313 727.567 791.388 637.443C842.461 547.322 857.451 442.769 833.973 342.303C830.149 342.229 826.627 339.649 825.598 335.661C824.529 331.079 827.43 326.192 832.012 325.123Z" fill="url(#paint66_linear)" fill-opacity="0.3"/>
<path opacity="0.4" fill-rule="evenodd" clip-rule="evenodd" d="M55.4124 620.032C53.2743 615.756 55.107 610.41 59.5359 608.425C63.8122 606.287 69.1575 608.12 71.143 612.549C72.8953 616.053 71.9804 620.276 69.155 622.779C76.4256 636.942 84.5308 650.729 93.2875 663.864C134.828 725.87 192.711 775.505 260.673 807.271C326.553 838.084 399.201 850.853 471.301 844.224C471.863 840.472 474.964 837.41 478.915 836.9C483.649 836.289 487.926 839.802 488.537 844.536C489.148 849.27 485.635 853.547 480.9 854.158C476.953 854.667 473.217 852.309 471.819 848.767C459.277 849.89 446.671 850.492 434.167 850.492C373.841 850.492 313.973 837.205 258.687 811.395C189.962 779.323 131.468 729.077 89.4694 666.46C80.5747 653.182 72.3328 639.143 65.0192 624.801C61.2347 625.527 57.2254 623.658 55.4124 620.032Z" fill="#DEDEDE"/>
<path opacity="0.2" fill-rule="evenodd" clip-rule="evenodd" d="M313.209 31.7403C317.791 30.3658 322.678 32.9621 324.053 37.5438C325.427 42.1255 322.831 47.0127 318.249 48.3872C314.4 49.5418 310.336 47.8945 308.319 44.6221C210.103 76.2017 128.313 142.93 77.2511 233.03C26.1511 323.198 11.172 427.814 34.7028 528.328C38.4529 528.483 41.8764 531.042 42.8886 534.965C43.9577 539.547 41.2087 544.281 36.4742 545.503C31.8925 546.572 27.1581 543.823 25.9363 539.088C25.0504 535.292 26.7864 531.39 30.1015 529.469C6.29162 427.769 21.4301 322.101 73.1275 230.739C124.817 139.541 207.564 72.1773 307.038 40.1691C307.001 36.398 309.43 32.8741 313.209 31.7403Z" fill="#FFD099"/>
<path opacity="0.5" fill-rule="evenodd" clip-rule="evenodd" d="M757.177 305.116C756.108 302.214 757.482 299.007 760.384 297.785C763.286 296.716 766.493 298.09 767.715 300.992C768.62 303.45 767.773 306.126 765.73 307.63C781.422 348.343 789.402 391.383 789.402 435.542C789.402 483.497 780.086 530.078 761.453 573.757C743.585 616.061 717.927 654.089 685.244 686.62C655.589 716.86 621.042 740.951 582.807 758.493C583.18 760.931 581.931 763.357 579.559 764.356C576.658 765.731 573.298 764.509 572.076 761.607C570.701 758.705 571.923 755.345 574.825 754.124C577.166 753.083 579.949 753.814 581.573 755.752C619.505 738.357 653.763 714.429 683.412 684.634C715.789 652.257 741.141 614.534 758.857 572.688C777.184 529.314 786.5 483.192 786.5 435.542C786.5 391.693 778.667 349.103 762.999 308.709C760.457 309.006 758.07 307.541 757.177 305.116Z" fill="url(#paint67_linear)" fill-opacity="0.3"/>
<path fill-rule="evenodd" clip-rule="evenodd" d="M428.822 783.599C426.286 783.599 424.067 785.283 423.298 787.602C379.639 786.324 337.284 777.061 297.173 760.08C255.327 742.364 217.604 717.012 185.227 684.634C153.002 652.257 127.497 614.687 109.781 572.688C91.4546 529.314 82.1385 483.039 82.1385 435.542C82.1385 387.892 91.4546 341.77 109.781 298.396C127.497 256.55 152.85 218.827 185.227 186.449C217.604 154.225 255.174 128.72 297.173 111.004C340.547 92.6771 386.822 83.361 434.319 83.361C481.969 83.361 528.092 92.6771 571.465 111.004C590.003 118.949 608.032 128.42 624.972 139.302C624.24 141.679 625.017 144.406 627.21 145.825C629.806 147.505 633.319 146.741 634.999 144.145C636.679 141.549 635.915 138.036 633.319 136.356C631.191 134.979 628.448 135.244 626.603 136.812C609.525 125.795 591.348 116.198 572.534 108.255C528.855 89.6227 482.275 80.3065 434.319 80.3065C386.364 80.3065 339.936 89.7754 296.104 108.255C253.8 126.276 215.924 151.781 183.242 184.464C150.559 216.994 124.901 255.022 107.032 297.327C88.4002 341.006 79.084 387.587 79.084 435.542C79.084 483.497 88.5529 529.925 107.032 573.757C125.054 616.061 150.559 653.937 183.242 686.62C215.772 719.302 253.8 744.96 296.104 762.829C336.5 779.953 379.14 789.363 423.217 790.655C423.858 793.105 425.976 794.901 428.516 794.901C431.723 794.901 434.32 792.457 434.32 789.403C434.32 786.196 431.876 783.599 428.822 783.599Z" fill="url(#paint68_linear)"/>
<path fill-rule="evenodd" clip-rule="evenodd" d="M859.807 479.068C860.265 475.25 863.625 472.501 867.444 472.959C871.262 473.417 874.011 476.777 873.552 480.595C873.182 483.684 870.913 486.072 868.039 486.63C861.758 539.814 845.701 590.855 820.405 638.817C792.914 690.743 756.108 735.797 710.902 772.603C667.223 808.188 617.74 834.609 563.676 851.256C513.842 866.747 462.609 873.008 411.182 870.174C410.177 873.053 407.417 875.03 404.232 874.775C400.414 874.47 397.513 871.263 397.818 867.444C398.123 863.626 401.331 860.725 405.149 861.03C408.204 861.157 410.729 863.513 411.396 866.505C462.535 869.347 513.341 863.1 562.607 847.896C616.213 831.402 665.237 805.133 708.611 769.854C753.359 733.353 789.86 688.758 817.197 637.137C842.336 589.783 858.103 539.072 864.366 486.342C861.384 485.286 859.414 482.346 859.807 479.068Z" fill="url(#paint69_linear)"/>
<path opacity="0.5" fill-rule="evenodd" clip-rule="evenodd" d="M230.128 809.257C227.278 807.702 223.77 808.235 221.745 810.482C175.328 783.919 134.703 749.688 101.077 708.459C65.7977 665.086 39.5292 616.061 23.0351 562.455C6.54091 509.002 0.584682 453.563 5.47184 397.972C10.359 340.395 26.8531 285.109 54.038 233.641C81.3755 182.02 117.876 137.425 162.625 100.924C205.998 65.645 255.022 39.3765 308.628 22.8823C362.082 6.38819 417.52 0.431962 473.112 5.31912C530.689 10.2063 585.975 26.7004 637.443 53.8853C689.063 81.2228 733.658 117.724 770.159 162.472C785.753 181.686 799.824 202.296 811.909 223.725C809.578 225.804 808.91 229.239 810.478 232.114C812.311 235.474 816.587 236.696 819.794 234.863C823.154 233.03 824.376 228.907 822.543 225.547C821.057 222.823 817.965 221.504 815.139 222.079C802.901 200.356 788.669 179.568 772.908 160.181C736.102 114.975 691.049 78.1683 639.122 50.6781C587.196 23.1878 531.452 6.69363 473.417 1.65375C417.215 -3.23341 361.471 2.72281 307.407 19.3697C253.342 36.0166 203.86 62.4378 160.181 98.0224C114.975 134.829 78.1683 179.882 50.6781 231.808C23.1878 283.734 6.69363 339.479 1.65375 397.514C-3.23341 453.716 2.72282 509.46 19.3697 563.524C36.0166 617.589 62.4378 667.071 98.0224 710.75C132.034 752.385 173.082 786.983 220.085 813.735C219.457 816.57 220.674 819.678 223.408 821.169C226.615 823.002 230.891 821.933 232.724 818.573C234.557 815.366 233.488 811.089 230.128 809.257Z" fill="url(#paint70_linear)" fill-opacity="0.3"/>
<g opacity="0.4">
<path opacity="0.3" fill-rule="evenodd" clip-rule="evenodd" d="M439.817 101.688C436.763 101.688 434.319 99.0915 434.319 95.8843C434.319 92.8298 436.916 90.3862 440.123 90.3862C442.613 90.3862 444.698 92.1122 445.382 94.488C487.454 95.7838 528.354 104.738 566.883 121.084C604.175 136.878 638.105 158.973 667.602 186.699C669.689 185.554 672.377 185.771 674.249 187.518C676.387 189.657 676.54 193.169 674.401 195.46C672.263 197.598 668.751 197.751 666.46 195.613C664.531 193.812 664.226 191.038 665.454 188.838C636.171 161.351 602.736 139.6 565.814 123.985C527.594 107.793 487.145 98.9854 445.397 97.5629C444.686 100.066 442.418 101.818 439.817 101.688Z" fill="#DEDEDE"/>
</g>
<path fill-rule="evenodd" clip-rule="evenodd" d="M302.061 122.611C303.436 125.513 302.214 128.873 299.312 130.094C296.918 131.103 294.315 130.447 292.706 128.642C256.459 145.405 223.727 168.262 195.307 196.682C164.304 227.685 139.868 263.88 122.763 304.199C105.2 345.893 96.1893 390.183 96.1893 435.847C96.1893 481.512 105.2 525.801 122.763 567.495C139.868 607.814 164.151 643.857 195.307 675.013C226.31 706.015 262.505 730.451 302.825 747.556C344.518 765.12 388.808 774.13 434.472 774.13C480.137 774.13 524.427 765.12 566.12 747.556C603.03 731.946 636.455 710.205 665.732 682.73C664.192 680.559 664.397 677.396 666.46 675.471C668.751 673.333 672.263 673.485 674.401 675.624C676.54 677.914 676.387 681.427 674.249 683.565C672.528 685.171 670.118 685.485 668.119 684.635C638.608 712.387 604.658 734.501 567.342 750.305C525.038 767.716 480.29 776.727 434.32 776.727C388.197 776.727 343.602 767.716 301.603 750C260.978 732.895 224.477 708.154 193.169 676.845C161.861 645.537 137.272 609.036 120.014 568.411C102.298 526.412 93.2876 481.664 93.2876 435.694C93.2876 389.572 102.298 344.977 120.014 302.978C137.119 262.353 161.861 225.852 193.169 194.544C221.861 165.851 254.859 142.854 291.369 125.948C290.882 123.437 292.134 120.891 294.578 119.862C297.48 118.487 300.84 119.709 302.061 122.611Z" fill="url(#paint71_linear)" fill-opacity="0.3"/>
<path opacity="0.6" fill-rule="evenodd" clip-rule="evenodd" d="M768.173 441.04C768.173 437.985 770.77 435.542 773.977 435.542C777.031 435.542 779.475 438.138 779.475 441.345C779.475 443.889 777.675 446.009 775.22 446.647C774.024 485.135 766.407 522.458 752.712 558.043C754.671 559.561 755.469 562.183 754.581 564.593C753.359 567.495 750.152 568.87 747.25 567.801C744.349 566.579 742.974 563.372 744.043 560.47C744.943 558.027 747.466 556.667 749.973 556.935C763.51 521.651 770.985 484.638 772.167 446.581C769.734 445.829 768.046 443.595 768.173 441.04Z" fill="#DEDEDE"/>
<path fill-rule="evenodd" clip-rule="evenodd" d="M110.24 466.087C113.447 465.628 116.196 467.919 116.501 470.974C116.757 473.531 115.3 475.874 113.027 476.838C116.699 506.05 124.407 534.546 135.897 561.692C152.238 600.331 175.605 634.846 205.386 664.627C235.167 694.409 269.836 717.775 308.322 734.117C348.183 751.069 390.64 759.622 434.319 759.622C477.998 759.622 520.455 751.069 560.316 734.117C579.951 725.842 598.685 715.635 616.162 703.733C615.22 701.375 615.992 698.715 618.199 697.158C620.795 695.325 624.308 696.088 625.988 698.532C627.667 700.976 627.057 704.641 624.613 706.321C622.498 707.814 619.774 707.584 617.929 706.126C600.276 718.184 581.36 728.431 561.538 736.866C521.219 753.818 478.456 762.523 434.319 762.523C390.182 762.523 347.419 753.818 307.1 736.866C268.156 720.372 233.182 696.852 203.248 666.766C173.162 636.679 149.642 601.705 133.148 562.913C121.522 535.498 113.807 506.734 110.132 477.254C107.597 476.948 105.609 474.919 105.352 472.348C104.894 469.141 107.185 466.392 110.24 466.087Z" fill="url(#paint72_linear)" fill-opacity="0.3"/>
<path opacity="0.4" fill-rule="evenodd" clip-rule="evenodd" d="M291.217 165.526C293.511 164.379 294.635 161.85 294.146 159.358C300.554 156.088 307.187 153.028 313.82 150.254C352.001 134.218 392.473 125.971 434.32 125.971C454.369 125.971 474.292 127.875 493.625 131.567C493.744 134.018 495.566 136.296 498.158 136.814C501.212 137.425 504.114 135.44 504.725 132.385C505.336 129.331 503.35 126.429 500.296 125.818C497.815 125.322 495.435 126.539 494.301 128.65C474.773 124.828 454.546 122.916 434.32 122.916C392.015 122.916 351.085 131.163 312.599 147.505C305.966 150.399 299.332 153.484 292.85 156.76C291.13 154.873 288.357 154.28 286.025 155.446C283.276 156.974 282.206 160.334 283.581 163.083C285.108 165.832 288.468 166.901 291.217 165.526Z" fill="#DEDEDE"/>
<path fill-rule="evenodd" clip-rule="evenodd" d="M128.261 492.66C131.315 491.897 134.37 493.882 134.981 496.937C135.501 499.537 134.139 502.138 131.931 503.231C136.003 521.283 141.69 539.037 148.879 556.041C164.457 592.847 186.754 625.988 215.314 654.548C243.72 682.954 276.861 705.405 313.82 720.982C352.001 737.171 392.473 745.266 434.319 745.266C472.385 745.266 509.483 738.493 544.562 725.079C544.299 722.607 545.659 720.177 548.098 719.15C551 718.081 554.207 719.455 555.429 722.357C556.498 725.259 555.123 728.466 552.222 729.688C549.811 730.576 547.189 729.777 545.671 727.818C510.263 741.398 472.706 748.32 434.319 748.32C392.015 748.32 351.085 740.073 312.599 723.731C275.334 708.001 241.888 685.398 213.175 656.686C184.463 627.974 161.86 594.527 146.13 557.263C138.793 539.958 133.087 522.026 129.012 503.808C126.596 503.643 124.482 501.865 123.985 499.38C123.221 496.326 125.206 493.271 128.261 492.66Z" fill="url(#paint73_linear)"/>
<path opacity="0.2" fill-rule="evenodd" clip-rule="evenodd" d="M324.206 164.304C326.02 163.527 327.065 161.65 326.873 159.793C360.974 146.499 397.141 139.716 434.015 139.716C471.289 139.716 507.569 146.538 541.756 159.908C541.619 161.727 542.657 163.543 544.434 164.304C546.572 165.221 549.015 164.152 549.932 161.861C550.848 159.723 549.779 157.279 547.488 156.363C545.719 155.604 543.74 156.206 542.591 157.734C508.133 144.24 471.718 137.425 434.167 137.425C396.848 137.425 360.378 144.21 325.979 157.643C324.82 156.182 322.886 155.62 321.152 156.363C318.861 157.279 317.792 159.723 318.708 161.861C319.624 164.152 322.068 165.221 324.206 164.304Z" fill="#FFD099"/>
<path opacity="0.7" fill-rule="evenodd" clip-rule="evenodd" d="M612.548 667.835C614.381 666.46 616.977 666.765 618.504 668.598C619.879 670.431 619.573 673.027 617.741 674.554C616.206 675.705 614.136 675.678 612.607 674.563C593.397 688.848 572.572 700.929 550.389 710.292C513.583 725.87 474.638 733.659 434.319 733.659C396.843 733.659 360.498 726.87 326.102 713.43C324.961 715.011 322.948 715.644 321.151 714.873C318.86 713.957 317.791 711.514 318.708 709.375C319.624 707.085 322.068 706.015 324.206 706.932C325.957 707.557 326.991 709.412 326.888 711.237C361.03 724.567 397.255 731.368 434.472 731.368C474.486 731.368 513.125 723.579 549.626 708.154C571.481 698.951 592.253 687.042 611.178 672.807C610.451 671.113 611.024 669.104 612.548 667.835Z" fill="#FFCF96"/>
<circle cx="347.218" cy="385.309" r="18.8792" fill="url(#paint74_linear)" fill-opacity="0.6"/>
<circle opacity="0.8" cx="556.153" cy="327.846" r="18.8792" transform="rotate(-45 556.153 327.846)" fill="url(#paint75_linear)" fill-opacity="0.6"/>
<rect x="347.281" y="378.952" width="8.99011" height="8.99011" transform="rotate(45 347.281 378.952)" fill="#979AFF"/>
<rect x="549.841" y="327.801" width="8.99011" height="8.99011" transform="rotate(-45 549.841 327.801)" fill="#979AFF"/>
<circle opacity="0.2" cx="457.887" cy="435.961" r="21.0942" fill="url(#paint76_linear)"/>
<path d="M450.855 435.961L457.958 428.858L465.061 435.961L457.958 443.064L450.855 435.961Z" fill="#FFCF96"/>
<circle opacity="0.2" cx="481.052" cy="543.363" r="21.0942" fill="url(#paint77_linear)"/>
<path d="M474.021 543.363L481.123 536.26L488.226 543.363L481.123 550.466L474.021 543.363Z" fill="#FFCF96"/>
<ellipse opacity="0.2" cx="222.024" cy="504.403" rx="18.9883" ry="21.0942" fill="url(#paint78_linear)"/>
<path d="M215.694 504.403L222.088 497.301L228.481 504.403L222.088 511.506L215.694 504.403Z" fill="#FFCF96"/>
<ellipse opacity="0.2" cx="166.487" cy="388.094" rx="10.4875" ry="16.0942" fill="url(#paint79_linear)"/>
<path d="M162.991 388.094L166.523 382.675L170.054 388.094L166.523 393.513L162.991 388.094Z" fill="#FFCF96"/>
<ellipse opacity="0.2" cx="671.077" cy="354.883" rx="15.2679" ry="21.0942" fill="url(#paint80_linear)"/>
<path d="M665.987 354.883L671.128 347.78L676.269 354.883L671.128 361.986L665.987 354.883Z" fill="#FFCF96"/>
<circle cx="332.55" cy="664.419" r="18.9533" fill="url(#paint81_linear)" fill-opacity="0.3"/>
<path d="M326.322 664.592L332.762 658.152L339.202 664.592L332.762 671.032L326.322 664.592Z" fill="#5FEFE6"/>
<ellipse cx="597.029" cy="521.216" rx="16.8474" ry="18.9533" fill="url(#paint82_linear)" fill-opacity="0.3"/>
<ellipse cx="737.599" cy="475.412" rx="8.95017" ry="15.2679" fill="url(#paint83_linear)" fill-opacity="0.3"/>
<path d="M594.355 524.609C592.774 522.831 592.774 519.948 594.355 518.169V518.169C595.935 516.391 598.498 516.391 600.079 518.169V518.169C601.66 519.948 601.66 522.831 600.079 524.609V524.609C598.498 526.388 595.935 526.388 594.355 524.609V524.609Z" fill="#5FEFE6"/>
<path d="M736.179 478.146C735.339 476.713 735.339 474.39 736.179 472.958V472.958C737.019 471.525 738.38 471.525 739.22 472.958V472.958C740.06 474.39 740.06 476.713 739.22 478.146V478.146C738.38 479.578 737.019 479.578 736.179 478.146V478.146Z" fill="#5FEFE6"/>
<defs>
<linearGradient id="paint0_linear" x1="200.536" y1="244.637" x2="276.246" y2="297.558" gradientUnits="userSpaceOnUse">
<stop stop-color="#737CFF"/>
<stop offset="1" stop-color="#11EDF2"/>
</linearGradient>
<linearGradient id="paint1_linear" x1="259.558" y1="198.057" x2="293.97" y2="286.5" gradientUnits="userSpaceOnUse">
<stop stop-color="#737CFF"/>
<stop offset="1" stop-color="#11EDF2"/>
</linearGradient>
<linearGradient id="paint2_linear" x1="277.97" y1="218.5" x2="375.97" y2="382.5" gradientUnits="userSpaceOnUse">
<stop stop-color="#737CFF"/>
<stop offset="1" stop-color="#11EDF2"/>
</linearGradient>
<linearGradient id="paint3_linear" x1="432.181" y1="390.03" x2="432.181" y2="419.353" gradientUnits="userSpaceOnUse">
<stop stop-color="#737CFF"/>
<stop offset="1" stop-color="#11EDF2"/>
</linearGradient>
<linearGradient id="paint4_linear" x1="360.935" y1="394.307" x2="360.935" y2="478.457" gradientUnits="userSpaceOnUse">
<stop stop-color="#737CFF"/>
<stop offset="1" stop-color="#11EDF2"/>
</linearGradient>
<linearGradient id="paint5_linear" x1="485.253" y1="377.201" x2="485.253" y2="390.794" gradientUnits="userSpaceOnUse">
<stop stop-color="#737CFF"/>
<stop offset="1" stop-color="#11EDF2"/>
</linearGradient>
<linearGradient id="paint6_linear" x1="436.531" y1="281.291" x2="436.531" y2="378.118" gradientUnits="userSpaceOnUse">
<stop stop-color="#737CFF"/>
<stop offset="1" stop-color="#11EDF2"/>
</linearGradient>
<linearGradient id="paint7_linear" x1="635.38" y1="264.491" x2="635.38" y2="276.862" gradientUnits="userSpaceOnUse">
<stop stop-color="#737CFF"/>
<stop offset="1" stop-color="#11EDF2"/>
</linearGradient>
<linearGradient id="paint8_linear" x1="587.73" y1="274.113" x2="587.73" y2="297.938" gradientUnits="userSpaceOnUse">
<stop stop-color="#737CFF"/>
<stop offset="1" stop-color="#11EDF2"/>
</linearGradient>
<linearGradient id="paint9_linear" x1="660.97" y1="256" x2="727.47" y2="358" gradientUnits="userSpaceOnUse">
<stop stop-color="#737CFF"/>
<stop offset="1" stop-color="#11EDF2"/>
</linearGradient>
<linearGradient id="paint10_linear" x1="494.187" y1="266.171" x2="494.187" y2="300.076" gradientUnits="userSpaceOnUse">
<stop stop-color="#737CFF"/>
<stop offset="1" stop-color="#11EDF2"/>
</linearGradient>
<linearGradient id="paint11_linear" x1="553.444" y1="297.938" x2="553.444" y2="317.945" gradientUnits="userSpaceOnUse">
<stop stop-color="#737CFF"/>
<stop offset="1" stop-color="#11EDF2"/>
</linearGradient>
<linearGradient id="paint12_linear" x1="632.514" y1="437.329" x2="632.514" y2="523.358" gradientUnits="userSpaceOnUse">
<stop stop-color="#737CFF"/>
<stop offset="1" stop-color="#11EDF2"/>
</linearGradient>
<linearGradient id="paint13_linear" x1="512.97" y1="377.5" x2="572.97" y2="494" gradientUnits="userSpaceOnUse">
<stop stop-color="#737CFF"/>
<stop offset="1" stop-color="#11EDF2"/>
</linearGradient>
<linearGradient id="paint14_linear" x1="362.463" y1="483.65" x2="362.463" y2="503.657" gradientUnits="userSpaceOnUse">
<stop stop-color="#737CFF"/>
<stop offset="1" stop-color="#11EDF2"/>
</linearGradient>
<linearGradient id="paint15_linear" x1="450.126" y1="506.406" x2="450.126" y2="614.907" gradientUnits="userSpaceOnUse">
<stop stop-color="#737CFF"/>
<stop offset="1" stop-color="#11EDF2"/>
</linearGradient>
<linearGradient id="paint16_linear" x1="445.47" y1="365" x2="671.54" y2="626.537" gradientUnits="userSpaceOnUse">
<stop stop-color="#737CFF"/>
<stop offset="1" stop-color="#11EDF2"/>
</linearGradient>
<linearGradient id="paint17_linear" x1="689.979" y1="393.516" x2="689.979" y2="490.37" gradientUnits="userSpaceOnUse">
<stop stop-color="#737CFF"/>
<stop offset="1" stop-color="#11EDF2"/>
</linearGradient>
<linearGradient id="paint18_linear" x1="435.802" y1="234.252" x2="435.802" y2="263.575" gradientUnits="userSpaceOnUse">
<stop stop-color="#737CFF"/>
<stop offset="1" stop-color="#11EDF2"/>
</linearGradient>
<linearGradient id="paint19_linear" x1="329" y1="301" x2="341" y2="345.5" gradientUnits="userSpaceOnUse">
<stop stop-color="#DEDEDE"/>
<stop offset="1" stop-color="#DEDEDE" stop-opacity="0"/>
</linearGradient>
<linearGradient id="paint20_linear" x1="308.112" y1="334.818" x2="314.13" y2="335.352" gradientUnits="userSpaceOnUse">
<stop offset="0.0001" stop-color="#E4E5FF"/>
<stop offset="1" stop-color="#FFEEEC"/>
</linearGradient>
<linearGradient id="paint21_linear" x1="463" y1="234" x2="481" y2="238.5" gradientUnits="userSpaceOnUse">
<stop stop-color="#737CFF"/>
<stop offset="1" stop-color="#11EDF2"/>
</linearGradient>
<linearGradient id="paint22_linear" x1="538.611" y1="237.086" x2="538.611" y2="274.266" gradientUnits="userSpaceOnUse">
<stop stop-color="#737CFF"/>
<stop offset="1" stop-color="#11EDF2"/>
</linearGradient>
<linearGradient id="paint23_linear" x1="661.267" y1="618.683" x2="661.267" y2="670.584" gradientUnits="userSpaceOnUse">
<stop stop-color="#737CFF"/>
<stop offset="1" stop-color="#11EDF2"/>
</linearGradient>
<linearGradient id="paint24_linear" x1="228.906" y1="224.63" x2="228.906" y2="227.074" gradientUnits="userSpaceOnUse">
<stop stop-color="#737CFF"/>
<stop offset="1" stop-color="#11EDF2"/>
</linearGradient>
<linearGradient id="paint25_linear" x1="189.461" y1="274.877" x2="189.461" y2="386.976" gradientUnits="userSpaceOnUse">
<stop stop-color="#737CFF"/>
<stop offset="1" stop-color="#11EDF2"/>
</linearGradient>
<linearGradient id="paint26_linear" x1="289.567" y1="544.434" x2="289.567" y2="664.78" gradientUnits="userSpaceOnUse">
<stop stop-color="#737CFF"/>
<stop offset="1" stop-color="#11EDF2"/>
</linearGradient>
<linearGradient id="paint27_linear" x1="270.752" y1="506.711" x2="270.752" y2="543.67" gradientUnits="userSpaceOnUse">
<stop stop-color="#737CFF"/>
<stop offset="1" stop-color="#11EDF2"/>
</linearGradient>
<linearGradient id="paint28_linear" x1="236.647" y1="463.452" x2="236.647" y2="680.504" gradientUnits="userSpaceOnUse">
<stop stop-color="#737CFF"/>
<stop offset="1" stop-color="#11EDF2"/>
</linearGradient>
<linearGradient id="paint29_linear" x1="152.438" y1="390.183" x2="152.438" y2="466.545" gradientUnits="userSpaceOnUse">
<stop stop-color="#737CFF"/>
<stop offset="1" stop-color="#11EDF2"/>
</linearGradient>
<linearGradient id="paint30_linear" x1="210.731" y1="365.442" x2="210.731" y2="503.351" gradientUnits="userSpaceOnUse">
<stop stop-color="#737CFF"/>
<stop offset="1" stop-color="#11EDF2"/>
</linearGradient>
<linearGradient id="paint31_linear" x1="546.218" y1="295.136" x2="555.117" y2="305.612" gradientUnits="userSpaceOnUse">
<stop offset="0.0001" stop-color="#C9CBFF"/>
<stop offset="1" stop-color="#FFEEEC"/>
</linearGradient>
<linearGradient id="paint32_linear" x1="561.781" y1="227.764" x2="568.17" y2="238.024" gradientUnits="userSpaceOnUse">
<stop offset="0.0001" stop-color="#C9CBFF"/>
<stop offset="1" stop-color="#FFEEEC"/>
</linearGradient>
<linearGradient id="paint33_linear" x1="683.043" y1="324.538" x2="689.723" y2="325.294" gradientUnits="userSpaceOnUse">
<stop offset="0.0001" stop-color="#C9CBFF"/>
<stop offset="1" stop-color="#FFEEEC"/>
</linearGradient>
<linearGradient id="paint34_linear" x1="666.701" y1="495.82" x2="673.437" y2="496.269" gradientUnits="userSpaceOnUse">
<stop offset="0.0001" stop-color="#C9CBFF"/>
<stop offset="1" stop-color="#FFEEEC"/>
</linearGradient>
<linearGradient id="paint35_linear" x1="678.419" y1="569.66" x2="689.437" y2="571.073" gradientUnits="userSpaceOnUse">
<stop offset="0.0001" stop-color="#C9CBFF"/>
<stop offset="1" stop-color="#FFEEEC"/>
</linearGradient>
<linearGradient id="paint36_linear" x1="696.644" y1="485.578" x2="702.457" y2="485.918" gradientUnits="userSpaceOnUse">
<stop offset="0.0001" stop-color="#C9CBFF"/>
<stop offset="1" stop-color="#FFEEEC"/>
</linearGradient>
<linearGradient id="paint37_linear" x1="616.055" y1="489.101" x2="625.476" y2="497.437" gradientUnits="userSpaceOnUse">
<stop offset="0.0001" stop-color="#C9CBFF"/>
<stop offset="1" stop-color="#FFEEEC"/>
</linearGradient>
<linearGradient id="paint38_linear" x1="473.188" y1="585.153" x2="479.321" y2="599.643" gradientUnits="userSpaceOnUse">
<stop offset="0.0001" stop-color="#C9CBFF"/>
<stop offset="1" stop-color="#FFEEEC"/>
</linearGradient>
<linearGradient id="paint39_linear" x1="546.132" y1="379.498" x2="584.958" y2="395.327" gradientUnits="userSpaceOnUse">
<stop offset="0.0001" stop-color="#C9CBFF"/>
<stop offset="1" stop-color="#FFEEEC"/>
</linearGradient>
<linearGradient id="paint40_linear" x1="414.322" y1="280.775" x2="422.805" y2="288.304" gradientUnits="userSpaceOnUse">
<stop offset="0.0001" stop-color="#C9CBFF"/>
<stop offset="1" stop-color="#FFEEEC"/>
</linearGradient>
<linearGradient id="paint41_linear" x1="535.988" y1="271.606" x2="543.785" y2="281.751" gradientUnits="userSpaceOnUse">
<stop offset="0.0001" stop-color="#C9CBFF"/>
<stop offset="1" stop-color="#FFEEEC"/>
</linearGradient>
<linearGradient id="paint42_linear" x1="624.89" y1="379.634" x2="684.993" y2="400.948" gradientUnits="userSpaceOnUse">
<stop offset="0.0001" stop-color="#C9CBFF"/>
<stop offset="1" stop-color="#FFEEEC"/>
</linearGradient>
<linearGradient id="paint43_linear" x1="217.423" y1="258.066" x2="272.421" y2="264.649" gradientUnits="userSpaceOnUse">
<stop offset="0.0001" stop-color="#C9CBFF"/>
<stop offset="1" stop-color="#FFEEEC"/>
</linearGradient>
<linearGradient id="paint44_linear" x1="222.422" y1="363.616" x2="274.891" y2="376.835" gradientUnits="userSpaceOnUse">
<stop offset="0.0001" stop-color="#C9CBFF"/>
<stop offset="1" stop-color="#FFEEEC"/>
</linearGradient>
<linearGradient id="paint45_linear" x1="233.391" y1="505.606" x2="318.759" y2="527.745" gradientUnits="userSpaceOnUse">
<stop offset="0.0001" stop-color="#C9CBFF"/>
<stop offset="1" stop-color="#FFEEEC"/>
</linearGradient>
<linearGradient id="paint46_linear" x1="260.374" y1="623.718" x2="321.114" y2="637.632" gradientUnits="userSpaceOnUse">
<stop offset="0.0001" stop-color="#C9CBFF"/>
<stop offset="1" stop-color="#FFEEEC"/>
</linearGradient>
<linearGradient id="paint47_linear" x1="194.635" y1="249.762" x2="200.147" y2="252.133" gradientUnits="userSpaceOnUse">
<stop offset="0.0001" stop-color="#C9CBFF"/>
<stop offset="1" stop-color="#FFEEEC"/>
</linearGradient>
<linearGradient id="paint48_linear" x1="156.963" y1="436.058" x2="174.165" y2="437.097" gradientUnits="userSpaceOnUse">
<stop offset="0.0001" stop-color="#C9CBFF"/>
<stop offset="1" stop-color="#FFEEEC"/>
</linearGradient>
<linearGradient id="paint49_linear" x1="244.239" y1="241.972" x2="251.158" y2="246.437" gradientUnits="userSpaceOnUse">
<stop offset="0.0001" stop-color="#C9CBFF"/>
<stop offset="1" stop-color="#FFEEEC"/>
</linearGradient>
<linearGradient id="paint50_linear" x1="292.436" y1="271.453" x2="300.501" y2="279.733" gradientUnits="userSpaceOnUse">
<stop offset="0.0001" stop-color="#C9CBFF"/>
<stop offset="1" stop-color="#FFEEEC"/>
</linearGradient>
<linearGradient id="paint51_linear" x1="306.552" y1="271.453" x2="313.63" y2="275.65" gradientUnits="userSpaceOnUse">
<stop offset="0.0001" stop-color="#C9CBFF"/>
<stop offset="1" stop-color="#FFEEEC"/>
</linearGradient>
<linearGradient id="paint52_linear" x1="303.808" y1="351.065" x2="312.891" y2="351.447" gradientUnits="userSpaceOnUse">
<stop offset="0.0001" stop-color="#C9CBFF"/>
<stop offset="1" stop-color="#FFEEEC"/>
</linearGradient>
<linearGradient id="paint53_linear" x1="337.907" y1="494.851" x2="342.549" y2="495.187" gradientUnits="userSpaceOnUse">
<stop offset="0.0001" stop-color="#C9CBFF"/>
<stop offset="1" stop-color="#FFEEEC"/>
</linearGradient>
<linearGradient id="paint54_linear" x1="562.606" y1="496.479" x2="584.518" y2="499.439" gradientUnits="userSpaceOnUse">
<stop offset="0.0001" stop-color="#C9CBFF"/>
<stop offset="1" stop-color="#FFEEEC"/>
</linearGradient>
<linearGradient id="paint55_linear" x1="721.871" y1="498.696" x2="740.662" y2="500.686" gradientUnits="userSpaceOnUse">
<stop offset="0.0001" stop-color="#C9CBFF"/>
<stop offset="1" stop-color="#FFEEEC"/>
</linearGradient>
<linearGradient id="paint56_linear" x1="602.862" y1="268.42" x2="641.768" y2="271.732" gradientUnits="userSpaceOnUse">
<stop offset="0.0001" stop-color="#C9CBFF"/>
<stop offset="1" stop-color="#FFEEEC"/>
</linearGradient>
<linearGradient id="paint57_linear" x1="373.17" y1="385.427" x2="395.495" y2="387.488" gradientUnits="userSpaceOnUse">
<stop offset="0.0001" stop-color="#E4E5FF"/>
<stop offset="1" stop-color="#FFEEEC"/>
</linearGradient>
<linearGradient id="paint58_linear" x1="357.17" y1="384.179" x2="366.661" y2="393.51" gradientUnits="userSpaceOnUse">
<stop offset="0.0001" stop-color="#E4E5FF"/>
<stop offset="1" stop-color="#FFEEEC"/>
</linearGradient>
<linearGradient id="paint59_linear" x1="678.98" y1="300.882" x2="695.004" y2="303.825" gradientUnits="userSpaceOnUse">
<stop offset="0.0001" stop-color="#C9CBFF"/>
<stop offset="1" stop-color="#FFEEEC"/>
</linearGradient>
<linearGradient id="paint60_linear" x1="689.924" y1="300.481" x2="695.204" y2="302.189" gradientUnits="userSpaceOnUse">
<stop offset="0.0001" stop-color="#C9CBFF"/>
<stop offset="1" stop-color="#FFEEEC"/>
</linearGradient>
<linearGradient id="paint61_linear" x1="469.213" y1="369.276" x2="533.455" y2="393.345" gradientUnits="userSpaceOnUse">
<stop offset="0.0001" stop-color="#C9CBFF"/>
<stop offset="1" stop-color="#FFEEEC"/>
</linearGradient>
<linearGradient id="paint62_linear" x1="413.207" y1="505.108" x2="489.887" y2="529.896" gradientUnits="userSpaceOnUse">
<stop offset="0.0001" stop-color="#C9CBFF"/>
<stop offset="1" stop-color="#FFEEEC"/>
</linearGradient>
<linearGradient id="paint63_linear" x1="403.91" y1="503.762" x2="411.539" y2="507.606" gradientUnits="userSpaceOnUse">
<stop offset="0.0001" stop-color="#C9CBFF"/>
<stop offset="1" stop-color="#FFEEEC"/>
</linearGradient>
<linearGradient id="paint64_linear" x1="654.179" y1="646.996" x2="659.692" y2="649.367" gradientUnits="userSpaceOnUse">
<stop offset="0.0001" stop-color="#C9CBFF"/>
<stop offset="1" stop-color="#FFEEEC"/>
</linearGradient>
<linearGradient id="paint65_linear" x1="712.921" y1="197.112" x2="729.159" y2="201.126" gradientUnits="userSpaceOnUse">
<stop offset="0.0001" stop-color="#E4E5FF"/>
<stop offset="1" stop-color="#FFEEEC"/>
</linearGradient>
<linearGradient id="paint66_linear" x1="830.155" y1="326.966" x2="855.41" y2="335.364" gradientUnits="userSpaceOnUse">
<stop offset="0.0001" stop-color="#01E6F8"/>
<stop offset="1" stop-color="#9AE7E2" stop-opacity="0.28"/>
</linearGradient>
<linearGradient id="paint67_linear" x1="574.622" y1="754.992" x2="388.129" y2="-51.8061" gradientUnits="userSpaceOnUse">
<stop offset="0.0001" stop-color="#0129F8"/>
<stop offset="1" stop-color="#9AE7E2" stop-opacity="0.28"/>
</linearGradient>
<linearGradient id="paint68_linear" x1="624.543" y1="135.851" x2="640.67" y2="139.792" gradientUnits="userSpaceOnUse">
<stop offset="0.0001" stop-color="#E4E5FF"/>
<stop offset="1" stop-color="#FFEEEC"/>
</linearGradient>
<linearGradient id="paint69_linear" x1="397.597" y1="861.483" x2="417.442" y2="866.355" gradientUnits="userSpaceOnUse">
<stop offset="0.0001" stop-color="#E4E5FF"/>
<stop offset="1" stop-color="#FFEEEC"/>
</linearGradient>
<linearGradient id="paint70_linear" x1="813.396" y1="223.585" x2="833.327" y2="230.198" gradientUnits="userSpaceOnUse">
<stop offset="0.0001" stop-color="#01E6F8"/>
<stop offset="1" stop-color="#9AE7E2" stop-opacity="0.28"/>
</linearGradient>
<linearGradient id="paint71_linear" x1="294.376" y1="120.64" x2="305.312" y2="125.205" gradientUnits="userSpaceOnUse">
<stop offset="0.0001" stop-color="#96FFF8"/>
<stop offset="1" stop-color="#9AE7E2" stop-opacity="0.28"/>
</linearGradient>
<linearGradient id="paint72_linear" x1="108.371" y1="467.369" x2="119.222" y2="471.851" gradientUnits="userSpaceOnUse">
<stop offset="0.0001" stop-color="#96FFF8"/>
<stop offset="1" stop-color="#9AE7E2" stop-opacity="0.28"/>
</linearGradient>
<linearGradient id="paint73_linear" x1="123.658" y1="492.887" x2="139.904" y2="496.861" gradientUnits="userSpaceOnUse">
<stop offset="0.0001" stop-color="#E4E5FF"/>
<stop offset="1" stop-color="#FFEEEC"/>
</linearGradient>
<linearGradient id="paint74_linear" x1="327.793" y1="367.732" x2="382.19" y2="381.102" gradientUnits="userSpaceOnUse">
<stop offset="0.0001" stop-color="#E4E5FF"/>
<stop offset="1" stop-color="#FFEEEC"/>
</linearGradient>
<linearGradient id="paint75_linear" x1="536.729" y1="310.269" x2="591.126" y2="323.639" gradientUnits="userSpaceOnUse">
<stop offset="0.0001" stop-color="#E4E5FF"/>
<stop offset="1" stop-color="#FFEEEC"/>
</linearGradient>
<linearGradient id="paint76_linear" x1="436.184" y1="416.321" x2="496.963" y2="431.26" gradientUnits="userSpaceOnUse">
<stop offset="0.0001" stop-color="#FFE4C5"/>
<stop offset="1" stop-color="#FFEEEC"/>
</linearGradient>
<linearGradient id="paint77_linear" x1="459.349" y1="523.724" x2="520.128" y2="538.662" gradientUnits="userSpaceOnUse">
<stop offset="0.0001" stop-color="#FFE4C5"/>
<stop offset="1" stop-color="#FFEEEC"/>
</linearGradient>
<linearGradient id="paint78_linear" x1="202.487" y1="484.764" x2="257.796" y2="497.001" gradientUnits="userSpaceOnUse">
<stop offset="0.0001" stop-color="#FFE4C5"/>
<stop offset="1" stop-color="#FFEEEC"/>
</linearGradient>
<linearGradient id="paint79_linear" x1="155.697" y1="373.11" x2="186.939" y2="378.114" gradientUnits="userSpaceOnUse">
<stop offset="0.0001" stop-color="#FFE4C5"/>
<stop offset="1" stop-color="#FFEEEC"/>
</linearGradient>
<linearGradient id="paint80_linear" x1="655.368" y1="335.243" x2="700.586" y2="343.288" gradientUnits="userSpaceOnUse">
<stop offset="0.0001" stop-color="#FFE4C5"/>
<stop offset="1" stop-color="#FFEEEC"/>
</linearGradient>
<linearGradient id="paint81_linear" x1="323.976" y1="649.978" x2="360.555" y2="665.127" gradientUnits="userSpaceOnUse">
<stop offset="0.0001" stop-color="#96FFF8"/>
<stop offset="1" stop-color="#9AE7E2" stop-opacity="0.28"/>
</linearGradient>
<linearGradient id="paint82_linear" x1="589.407" y1="506.775" x2="622.952" y2="519.124" gradientUnits="userSpaceOnUse">
<stop offset="0.0001" stop-color="#96FFF8"/>
<stop offset="1" stop-color="#9AE7E2" stop-opacity="0.28"/>
</linearGradient>
<linearGradient id="paint83_linear" x1="733.55" y1="463.779" x2="752.659" y2="468.419" gradientUnits="userSpaceOnUse">
<stop offset="0.0001" stop-color="#96FFF8"/>
<stop offset="1" stop-color="#9AE7E2" stop-opacity="0.28"/>
</linearGradient>
</defs>
</svg>
