<svg width="1183" height="1000" viewBox="0 0 1183 1000" fill="none" xmlns="http://www.w3.org/2000/svg">
<g clip-path="url(#clip0_7143_348)">
<path d="M324.631 695.357V690.443H341.83V673.244H346.744V690.443H363.943V695.357H346.744V712.556H341.83V695.357H324.631ZM324.631 641.303V636.389H341.83V619.19H346.744V636.389H363.943V641.303H346.744V658.502H341.83V641.303H324.631ZM201.473 29.4844H196.559V46.6834H179.36V51.5974H196.559V68.7964H201.473V51.5974H218.672V46.6834H201.473V29.4844ZM147.419 83.5384H142.505V100.737H125.306V105.651H142.505V122.85H147.419V105.651H164.618V100.737H147.419V83.5384ZM93.3653 83.5384H88.4513V100.737H71.2523V105.651H88.4513V122.85H93.3653V105.651H110.564V100.737H93.3653V83.5384ZM35.0115 228.219H39.9255V211.02H57.1245V206.106H39.9255V188.907H35.0115V206.106H17.8125V211.02H35.0115V228.219ZM89.0656 174.165H93.9796V156.966H111.179V152.052H93.9796V134.853H89.0656V152.052H71.8666V156.966H89.0656V174.165ZM89.0656 228.219H93.9796V211.02H111.179V206.106H93.9796V188.907H89.0656V206.106H71.8666V211.02H89.0656V228.219ZM89.0656 282.273H93.9796V265.074H111.179V260.16H93.9796V242.961H89.0656V260.16H71.8666V265.074H89.0656V282.273Z" fill="#5BE3C3"/>
<path d="M107.457 437.103C109.091 438.197 111.053 438.691 113.01 438.501L134.568 435.681C140.769 434.934 143.148 435.133 144.519 428.44C145.706 422.634 147.708 414.17 148.081 411.02M107.457 437.103C105.824 436.011 104.621 434.385 104.052 432.504L102.022 424.939M107.457 437.103L112.801 415.899M94.9046 398.366L59.2608 402.528C57.3041 402.72 55.3416 402.227 53.708 401.133M94.9046 398.366L99.7203 377.329M94.9046 398.366L99.5163 415.585M53.708 401.133C52.0736 400.041 50.8691 398.415 50.3001 396.533L42.9832 369.221C41.7227 364.514 41.595 361.804 43.4697 358.558C45.3419 355.31 47.7448 349.484 48.8628 347.966M53.708 401.133L59.2608 379.939M144.956 392.524L169.752 389.629C176 388.904 177.418 387.359 178.241 383.605C178.9 380.602 179.887 369.266 180.298 363.971M81.7203 300.059C81.2114 300.794 80.874 301.633 80.7328 302.516C80.5916 303.398 80.6503 304.301 80.9046 305.157L90.052 339.295L79.7915 340.494M81.7203 300.059C82.2284 299.324 82.8952 298.713 83.6713 298.27C84.4474 297.827 85.3131 297.565 86.2043 297.501L111.155 294.587C113.111 294.396 115.073 294.888 116.706 295.982C118.34 297.075 119.543 298.701 120.111 300.583L129.258 334.72L146.745 332.678M81.7203 300.059C81.1429 301.479 74.767 308.094 73.7473 311.111C72.7252 314.13 73.1822 315.836 74.3272 320.103L79.7915 340.494M174.964 368.111C175.855 368.046 176.721 367.783 177.497 367.339C178.273 366.896 178.94 366.284 179.448 365.549C179.956 364.814 180.294 363.975 180.435 363.092C180.576 362.21 180.517 361.307 180.263 360.45L173.86 336.553C173.291 334.672 172.088 333.046 170.454 331.952C168.82 330.859 166.858 330.366 164.902 330.558L155.9 331.61M79.7915 340.494L54.4107 343.457C53.5194 343.522 52.6538 343.785 51.8774 344.227C51.101 344.67 50.4337 345.281 49.9242 346.015C49.4153 346.75 49.0779 347.59 48.9367 348.473C48.7955 349.355 48.8542 350.259 49.1085 351.116L55.5114 375.013C56.0803 376.894 57.2842 378.52 58.9177 379.613C60.5513 380.706 62.5134 381.199 64.4697 381.008L76.4107 379.615M92.5827 377.725L100.113 376.848L109.261 410.985C109.831 412.866 111.035 414.491 112.668 415.584C114.302 416.677 116.263 417.171 118.219 416.981L143.17 414.069C144.514 413.97 145.785 413.421 146.777 412.51C147.77 411.599 148.426 410.38 148.639 409.049C148.78 408.167 148.721 407.265 148.467 406.408L139.32 372.271L166.679 369.076" stroke="#7DC0BC" stroke-width="2" stroke-linecap="round" stroke-linejoin="round"/>
<path d="M81.0742 430.647V468.974C81.0742 481.475 87.7081 493.025 98.4821 499.276L114.639 508.649M302.204 400.492V432.834M129.615 517.337L143.096 525.163M155.234 532.202L174.227 543.224C179.515 546.295 185.521 547.913 191.637 547.913C197.752 547.913 203.759 546.295 209.047 543.224L284.794 499.276C290.096 496.192 294.494 491.77 297.549 486.452C300.605 481.134 302.21 475.107 302.204 468.974V457.205" stroke="#8EFFE8" stroke-width="2" stroke-linecap="round"/>
<path d="M356.935 520.573L337.842 510.217M364.503 525.018L372.517 529.723" stroke="#7DC0BC" stroke-width="2" stroke-linecap="round"/>
<path d="M297.346 488.25L327.137 504.412" stroke="#7DC0BC" stroke-width="2" stroke-linecap="round"/>
<path d="M446.317 569.988L448.069 571.71C448.523 571.249 448.777 570.626 448.775 569.978C448.773 569.33 448.514 568.71 448.057 568.251L446.317 569.988ZM411.958 535.627L413.695 533.89C413.235 533.429 412.61 533.17 411.958 533.17V535.627ZM381.091 535.627V533.17C380.603 533.169 380.125 533.313 379.72 533.585C379.314 533.857 378.999 534.243 378.814 534.695C378.629 535.147 378.583 535.643 378.682 536.121C378.781 536.6 379.02 537.037 379.369 537.379L381.091 535.627ZM381.091 604.932L379.354 603.194C379.009 603.538 378.774 603.975 378.679 604.452C378.583 604.929 378.632 605.424 378.818 605.873C379.004 606.323 379.319 606.707 379.724 606.976C380.129 607.246 380.605 607.39 381.091 607.389V604.932ZM411.958 604.932V607.389C412.617 607.389 413.248 607.123 413.71 606.654L411.958 604.932ZM416.035 569.988L417.772 571.725C418.001 571.496 418.183 571.223 418.306 570.923C418.43 570.623 418.492 570.302 418.491 569.978C418.49 569.653 418.424 569.332 418.298 569.034C418.172 568.735 417.988 568.464 417.757 568.236L416.035 569.988ZM410.853 571.696C410.392 572.156 410.133 572.781 410.133 573.433C410.133 574.084 410.392 574.709 410.853 575.17C411.313 575.631 411.938 575.889 412.59 575.889C413.241 575.889 413.866 575.631 414.327 575.17L410.853 571.696ZM397.7 591.796C398.148 591.333 398.396 590.712 398.39 590.068C398.384 589.424 398.126 588.808 397.67 588.352C397.215 587.897 396.599 587.638 395.954 587.633C395.31 587.627 394.69 587.875 394.226 588.322L397.7 591.796ZM395.403 553.145C395.632 553.377 395.905 553.561 396.205 553.687C396.506 553.812 396.828 553.877 397.154 553.877C397.48 553.876 397.802 553.811 398.103 553.685C398.403 553.559 398.676 553.375 398.904 553.142C399.132 552.91 399.312 552.634 399.433 552.332C399.554 552.029 399.614 551.706 399.609 551.38C399.603 551.054 399.533 550.733 399.403 550.434C399.272 550.136 399.084 549.867 398.848 549.642L395.403 553.145ZM413.838 564.381C413.373 563.924 412.746 563.67 412.094 563.676C411.443 563.681 410.82 563.945 410.363 564.409C409.905 564.874 409.652 565.501 409.657 566.153C409.662 566.805 409.926 567.428 410.391 567.885L413.838 564.381ZM403.496 554.212C403.268 553.98 402.995 553.796 402.694 553.67C402.394 553.545 402.071 553.48 401.745 553.48C401.419 553.481 401.097 553.546 400.797 553.672C400.496 553.798 400.224 553.983 399.995 554.215C399.767 554.447 399.587 554.723 399.466 555.025C399.345 555.328 399.286 555.651 399.291 555.977C399.296 556.303 399.366 556.624 399.497 556.923C399.627 557.221 399.816 557.491 400.052 557.715L403.496 554.212ZM405.504 563.079C405.968 563.536 406.596 563.79 407.247 563.785C407.899 563.779 408.522 563.515 408.979 563.051C409.436 562.586 409.69 561.959 409.685 561.307C409.68 560.655 409.416 560.032 408.951 559.575L405.504 563.079ZM448.057 568.251L413.695 533.89L410.221 537.364L444.58 571.725L448.057 568.251V568.251ZM411.958 533.17H381.091V538.084H411.958V533.17ZM381.091 607.389H411.958V602.475H381.091V607.389ZM413.71 606.654L448.069 571.71L444.565 568.266L410.206 603.209L413.71 606.654ZM414.297 568.251L410.853 571.696L414.327 575.17L417.772 571.725L414.297 568.251ZM394.226 588.322L379.354 603.194L382.828 606.669L397.7 591.796L394.226 588.322ZM379.369 537.379L395.403 553.145L398.848 549.642L382.813 533.875L379.369 537.379ZM410.391 567.885L414.312 571.74L417.757 568.236L413.838 564.381L410.391 567.885ZM400.052 557.715L405.504 563.079L408.951 559.575L403.496 554.212L400.052 557.715Z" fill="#7DC0BC"/>
<path d="M353.144 570.652L354.896 572.376C355.35 571.914 355.604 571.291 355.601 570.642C355.598 569.994 355.339 569.373 354.881 568.915L353.144 570.652ZM318.783 536.293L320.52 534.553C320.059 534.094 319.434 533.836 318.783 533.836V536.293ZM287.916 536.293V533.836C287.428 533.836 286.951 533.981 286.546 534.253C286.142 534.525 285.827 534.911 285.642 535.362C285.457 535.814 285.411 536.31 285.509 536.788C285.607 537.265 285.846 537.703 286.193 538.045L287.916 536.293ZM287.916 605.595L286.178 603.858C285.835 604.202 285.601 604.639 285.506 605.116C285.412 605.593 285.46 606.086 285.646 606.535C285.832 606.984 286.147 607.368 286.551 607.638C286.955 607.908 287.43 608.052 287.916 608.052V605.595ZM318.783 605.595V608.052C319.109 608.053 319.432 607.988 319.733 607.862C320.034 607.735 320.306 607.55 320.535 607.318L318.783 605.595ZM322.859 570.652L324.596 572.389C324.826 572.16 325.009 571.888 325.133 571.588C325.257 571.288 325.32 570.966 325.319 570.641C325.317 570.317 325.251 569.995 325.125 569.697C324.998 569.398 324.814 569.127 324.581 568.9L322.859 570.652ZM317.677 572.359C317.23 572.823 316.982 573.443 316.988 574.088C316.993 574.732 317.252 575.348 317.707 575.804C318.163 576.259 318.779 576.517 319.423 576.523C320.067 576.529 320.688 576.281 321.151 575.833L317.677 572.359ZM304.525 592.462C304.986 592.002 305.245 591.377 305.245 590.725C305.246 590.073 304.987 589.448 304.526 588.987C304.298 588.759 304.027 588.578 303.729 588.454C303.431 588.33 303.111 588.267 302.789 588.267C302.137 588.266 301.512 588.525 301.051 588.986L304.525 592.462ZM302.228 553.811C302.456 554.043 302.729 554.227 303.03 554.353C303.33 554.478 303.653 554.543 303.979 554.543C304.305 554.542 304.627 554.477 304.927 554.351C305.228 554.225 305.5 554.041 305.729 553.808C305.957 553.576 306.137 553.3 306.258 552.998C306.379 552.695 306.438 552.372 306.433 552.046C306.428 551.72 306.358 551.399 306.227 551.101C306.097 550.802 305.908 550.533 305.672 550.308L302.228 553.811ZM320.663 565.047C320.432 564.821 320.16 564.642 319.861 564.521C319.562 564.401 319.242 564.34 318.919 564.342C318.597 564.345 318.278 564.411 317.981 564.537C317.684 564.663 317.414 564.847 317.188 565.077C316.962 565.307 316.783 565.579 316.663 565.878C316.542 566.177 316.481 566.497 316.484 566.82C316.486 567.143 316.553 567.461 316.678 567.758C316.804 568.055 316.988 568.325 317.218 568.551L320.663 565.047ZM310.321 554.878C310.092 554.646 309.819 554.462 309.519 554.336C309.218 554.211 308.896 554.146 308.57 554.146C308.244 554.147 307.922 554.212 307.621 554.338C307.321 554.464 307.048 554.649 306.82 554.881C306.592 555.113 306.412 555.389 306.291 555.691C306.17 555.994 306.11 556.317 306.115 556.643C306.121 556.969 306.191 557.29 306.321 557.589C306.452 557.887 306.641 558.157 306.876 558.381L310.321 554.878ZM310.537 561.983C311.002 562.441 311.629 562.694 312.281 562.689C312.933 562.684 313.556 562.42 314.013 561.955C314.47 561.49 314.724 560.863 314.718 560.212C314.713 559.56 314.449 558.937 313.984 558.48L310.537 561.983ZM354.881 568.915L320.52 534.553L317.046 538.03L351.405 572.389L354.881 568.915V568.915ZM318.783 533.836H287.916V538.75H318.783V533.836ZM287.916 608.052H318.783V603.138H287.916V608.052ZM320.535 607.318L354.896 572.376L351.392 568.929L317.031 603.873L320.535 607.318ZM321.122 568.915L317.677 572.359L321.151 575.833L324.596 572.389L321.122 568.915ZM301.051 588.986L286.178 603.858L289.653 607.332L304.525 592.462L301.051 588.986ZM286.193 538.045L302.228 553.811L305.672 550.308L289.638 534.541L286.193 538.045ZM317.218 568.551L321.137 572.404L324.581 568.9L320.663 565.047L317.218 568.551ZM306.876 558.381L310.537 561.983L313.984 558.48L310.321 554.878L306.876 558.381Z" fill="#B2E1D6"/>
<path d="M304.005 570.652L305.757 572.374C306.211 571.912 306.465 571.289 306.462 570.641C306.459 569.993 306.201 569.373 305.743 568.915L304.005 570.652ZM269.644 536.293L271.381 534.553C270.92 534.094 270.295 533.836 269.644 533.836V536.293ZM238.777 536.293V533.836C238.289 533.836 237.813 533.981 237.408 534.253C237.003 534.525 236.688 534.911 236.503 535.362C236.319 535.814 236.272 536.31 236.371 536.788C236.469 537.265 236.707 537.703 237.055 538.045L238.777 536.293ZM238.777 605.595L237.04 603.858C236.696 604.202 236.462 604.639 236.368 605.116C236.273 605.593 236.322 606.086 236.507 606.535C236.693 606.984 237.008 607.368 237.412 607.638C237.816 607.908 238.291 608.052 238.777 608.052V605.595ZM269.644 605.595V608.052C270.303 608.052 270.934 607.787 271.396 607.318L269.644 605.595ZM273.72 570.652L275.458 572.389C275.688 572.16 275.87 571.888 275.994 571.588C276.118 571.288 276.181 570.966 276.18 570.641C276.179 570.317 276.113 569.995 275.986 569.697C275.86 569.398 275.675 569.127 275.443 568.9L273.72 570.652ZM268.539 572.359C268.091 572.823 267.843 573.443 267.849 574.088C267.855 574.732 268.113 575.348 268.569 575.804C269.024 576.259 269.64 576.517 270.285 576.523C270.929 576.529 271.549 576.281 272.013 575.833L268.539 572.359ZM255.386 592.46C255.614 592.232 255.795 591.961 255.919 591.663C256.042 591.365 256.106 591.046 256.106 590.723C256.106 590.4 256.042 590.081 255.919 589.783C255.795 589.485 255.614 589.214 255.386 588.986C255.158 588.758 254.887 588.577 254.589 588.453C254.291 588.33 253.972 588.266 253.649 588.266C253.327 588.266 253.007 588.33 252.709 588.453C252.411 588.577 252.14 588.758 251.912 588.986L255.386 592.46ZM253.089 553.811C253.318 554.043 253.59 554.227 253.891 554.353C254.192 554.478 254.514 554.543 254.84 554.543C255.166 554.542 255.488 554.477 255.789 554.351C256.089 554.225 256.362 554.041 256.59 553.808C256.818 553.576 256.998 553.3 257.119 552.998C257.24 552.695 257.3 552.372 257.295 552.046C257.289 551.72 257.219 551.399 257.089 551.101C256.958 550.802 256.769 550.533 256.534 550.308L253.089 553.811ZM271.524 565.047C271.294 564.821 271.021 564.642 270.722 564.521C270.423 564.401 270.103 564.34 269.781 564.342C269.458 564.345 269.139 564.411 268.842 564.537C268.545 564.663 268.276 564.847 268.05 565.077C267.823 565.307 267.645 565.579 267.524 565.878C267.403 566.177 267.342 566.497 267.345 566.82C267.348 567.143 267.414 567.461 267.54 567.758C267.666 568.055 267.849 568.325 268.079 568.551L271.524 565.047ZM261.182 554.878C260.954 554.646 260.681 554.462 260.38 554.336C260.08 554.211 259.757 554.146 259.431 554.146C259.105 554.147 258.783 554.212 258.482 554.338C258.182 554.464 257.91 554.649 257.681 554.881C257.453 555.113 257.273 555.389 257.152 555.691C257.031 555.994 256.971 556.317 256.977 556.643C256.982 556.969 257.052 557.29 257.183 557.589C257.313 557.887 257.502 558.157 257.738 558.381L261.182 554.878ZM261.399 561.983C261.863 562.441 262.49 562.694 263.142 562.689C263.794 562.684 264.417 562.42 264.874 561.955C265.331 561.49 265.585 560.863 265.58 560.212C265.574 559.56 265.31 558.937 264.846 558.48L261.399 561.983ZM305.743 568.915L271.381 534.553L267.907 538.03L302.266 572.389L305.743 568.915V568.915ZM269.644 533.836H238.777V538.75H269.644V533.836ZM238.777 608.052H269.644V603.138H238.777V608.052ZM271.396 607.318L305.757 572.374L302.254 568.929L267.892 603.873L271.396 607.318ZM271.983 568.915L268.539 572.359L272.013 575.833L275.458 572.389L271.983 568.915ZM251.912 588.986L237.04 603.858L240.514 607.332L255.386 592.46L251.912 588.986ZM237.055 538.045L253.089 553.811L256.534 550.308L240.499 534.539L237.055 538.045ZM268.079 568.551L271.998 572.404L275.443 568.9L271.524 565.047L268.079 568.551ZM257.738 558.381L261.399 561.983L264.846 558.48L261.182 554.878L257.738 558.381Z" fill="#92D0C4"/>
<path d="M369.813 570.443L371.55 572.18C371.78 571.951 371.963 571.679 372.087 571.379C372.211 571.079 372.274 570.757 372.273 570.433C372.271 570.108 372.205 569.787 372.079 569.488C371.952 569.189 371.768 568.918 371.535 568.691L369.813 570.443ZM334.87 605.387L333.132 603.65C332.791 603.994 332.559 604.432 332.466 604.907C332.373 605.383 332.422 605.876 332.607 606.324C332.793 606.772 333.106 607.155 333.509 607.425C333.911 607.696 334.385 607.841 334.87 607.844V605.387ZM366.368 573.888L364.631 572.151L366.368 573.888ZM349.742 590.514L351.479 592.252L349.742 590.514ZM352.629 550.099C352.159 549.671 351.541 549.442 350.906 549.46C350.27 549.478 349.666 549.74 349.221 550.194C348.775 550.647 348.522 551.255 348.514 551.89C348.507 552.526 348.746 553.14 349.182 553.603L352.629 550.099ZM365.894 566.591L367.616 564.839L365.894 566.591ZM349.666 607.844C350.317 607.844 350.942 607.585 351.403 607.124C351.864 606.663 352.123 606.038 352.123 605.387C352.123 604.735 351.864 604.11 351.403 603.649C350.942 603.189 350.317 602.93 349.666 602.93V607.844ZM368.076 568.706L364.631 572.151L368.105 575.625L371.55 572.18L368.076 568.706ZM348.005 588.777L333.132 603.65L336.607 607.124L351.479 592.252L348.005 588.777ZM364.172 568.342L368.091 572.195L371.535 568.691L367.616 564.839L364.172 568.342ZM364.631 572.151L348.005 588.777L351.479 592.252L368.105 575.625L364.631 572.151ZM367.616 564.839L352.629 550.099L349.182 553.603L364.172 568.342L367.616 564.839ZM334.87 607.844H349.666V602.93H334.87V607.844Z" fill="#AAFFE5"/>
<path d="M365.734 536.086L367.471 534.346C367.01 533.886 366.385 533.628 365.734 533.629V536.086ZM334.869 536.086V533.629C334.381 533.628 333.904 533.773 333.499 534.045C333.094 534.317 332.779 534.703 332.594 535.154C332.409 535.606 332.362 536.102 332.46 536.58C332.558 537.058 332.797 537.496 333.144 537.838L334.869 536.086ZM365.734 605.388V607.845C366.06 607.846 366.383 607.781 366.684 607.655C366.985 607.528 367.258 607.343 367.486 607.11L365.734 605.388ZM400.095 570.445L401.847 572.167C402.301 571.705 402.555 571.082 402.552 570.434C402.549 569.786 402.29 569.166 401.832 568.708L400.095 570.445ZM372.737 546.563C373.2 547.01 373.821 547.258 374.465 547.252C375.109 547.247 375.725 546.988 376.181 546.533C376.636 546.077 376.895 545.461 376.9 544.817C376.906 544.172 376.658 543.552 376.211 543.088L372.737 546.563ZM384.248 558.074C384.711 558.521 385.332 558.769 385.976 558.763C386.62 558.758 387.236 558.499 387.692 558.044C388.147 557.588 388.406 556.972 388.411 556.328C388.417 555.683 388.169 555.063 387.722 554.599L384.248 558.074ZM382.181 549.056C381.953 548.828 381.682 548.647 381.384 548.523C381.086 548.4 380.767 548.336 380.444 548.336C379.792 548.336 379.167 548.594 378.706 549.055C378.245 549.516 377.986 550.141 377.985 550.793C377.985 551.444 378.244 552.07 378.705 552.531L382.181 549.056ZM343.26 547.784C343.489 548.016 343.761 548.2 344.062 548.325C344.363 548.451 344.685 548.515 345.011 548.515C345.337 548.515 345.659 548.45 345.96 548.324C346.26 548.197 346.532 548.013 346.761 547.781C346.989 547.548 347.169 547.273 347.29 546.97C347.411 546.668 347.471 546.344 347.465 546.019C347.46 545.693 347.39 545.371 347.26 545.073C347.129 544.774 346.94 544.505 346.705 544.28L343.26 547.784ZM358.326 602.931C357.675 602.931 357.05 603.19 356.589 603.651C356.128 604.112 355.869 604.737 355.869 605.388C355.869 606.04 356.128 606.665 356.589 607.126C357.05 607.586 357.675 607.845 358.326 607.845V602.931ZM396.751 563.626C396.29 563.166 395.665 562.907 395.013 562.907C394.362 562.908 393.737 563.167 393.276 563.628C392.815 564.089 392.556 564.714 392.557 565.366C392.557 566.017 392.816 566.642 393.277 567.103L396.751 563.626ZM365.734 533.629H334.869V538.543H365.734V533.629ZM367.486 607.11L401.847 572.167L398.343 568.722L363.982 603.666L367.486 607.11ZM376.211 543.088L367.471 534.346L363.997 537.823L372.737 546.563L376.211 543.088ZM387.722 554.599L382.181 549.056L378.705 552.531L384.248 558.074L387.722 554.599ZM333.144 537.838L343.26 547.784L346.705 544.28L336.592 534.332L333.144 537.838ZM358.326 607.845H365.734V602.931H358.326V607.845ZM401.832 568.708L396.751 563.626L393.277 567.103L398.358 572.182L401.832 568.708Z" fill="#7DC0BC"/>
<g clip-path="url(#clip1_7143_348)">
<path d="M317.331 361.591C336.287 359.496 345.82 354.567 350.587 352.1C349.204 353.611 342.184 360.881 329.774 370.626C317.361 380.373 301.621 385.894 283.815 387.864C264.513 389.997 247.501 385.306 239.184 381.962L264.363 355.82C276.086 358.402 289.759 364.64 317.331 361.591V361.591Z" fill="#86DAC6"/>
<path d="M180.351 123.961C180.351 123.961 165.857 137.752 153.258 149.509C146.55 155.803 140.853 163.094 136.369 171.126C122.412 195.897 119.778 226.517 126.628 256.993M362.077 344.212C362.077 344.212 338.827 363.168 329.357 370.261C299.185 392.841 255.66 394.028 214.701 372.524M137.405 289.082C141.378 297.887 146.053 306.358 151.385 314.413" stroke="#7DC0BC" stroke-width="2" stroke-linecap="round" stroke-linejoin="round"/>
<path d="M263.675 355.789C263.675 355.789 257.866 362.079 250.068 370.146M239.198 381.183C240.892 379.498 242.578 377.804 244.255 376.102M245.1 348.188C245.1 348.188 243.156 350.143 240.033 353.274M219.768 373.519C223.432 369.875 227.091 366.227 230.746 362.573M323.454 142.394C374.363 182.787 394.348 253.396 368.09 300.104C341.834 346.814 279.289 351.937 228.382 311.544C177.473 271.151 157.493 200.541 183.746 153.833C204.468 116.961 247.805 106.003 290.181 122.89M300.031 127.33C304.461 129.568 308.762 132.054 312.913 134.775M205.8 129.109C236.097 114.873 278.036 122.544 313.026 150.338C363.618 190.537 383.478 260.788 357.387 307.262C352.316 316.415 345.574 323.864 337.24 330.166" stroke="#C5F1F1" stroke-width="2" stroke-linecap="round" stroke-linejoin="round"/>
<path d="M219.436 330.19C158.856 282.227 135.075 198.389 166.316 142.927C197.559 87.4651 271.996 81.3791 332.576 129.342C341.264 136.229 349.293 143.909 356.559 152.283M232.768 339.745C290.552 377.013 356.711 368.06 385.694 316.608C395.124 299.866 399.542 280.537 399.446 260.392M381.077 188.551C380.121 186.682 379.132 184.83 378.109 182.996M371.419 171.939C369.225 168.588 366.922 165.31 364.512 162.111" stroke="#A2F8F2" stroke-width="2" stroke-linecap="round" stroke-linejoin="round"/>
<path d="M209.408 195.871C209.683 196.073 210.11 196.248 210.208 196.481C211.159 198.75 213.053 200.207 215.162 201.344C234.527 211.897 253.885 222.652 273.266 233.531C277.946 236.19 280.966 235.932 283.979 233.04C290.865 226.386 297.743 219.661 304.606 212.858C308.499 208.973 310.743 204.029 310.908 197.878C310.966 195.729 310.58 193.462 310.465 192.064C311.962 197.347 314.068 203.454 315.317 209.53C316.856 217.016 315.034 223.303 310.595 227.925C303.204 235.563 295.554 242.872 287.899 250.093C285.41 252.425 281.906 251.909 278.225 249.922C274.449 247.892 270.685 245.824 266.957 243.678C251.507 234.866 236.069 226.14 220.613 217.577C217.964 216.123 215.689 214.371 214.467 211.626C213.121 207.137 211.781 202.648 210.414 198.16C210.31 197.819 210.007 197.49 209.797 197.155L209.409 195.87L209.408 195.871Z" fill="#A7FFEA"/>
<path d="M220.372 232.162C220.613 232.289 221.009 232.394 221.072 232.547C222.119 235.083 224.298 236.565 226.615 237.887C235.53 243 244.421 248.214 253.378 253.302C263.293 258.986 273.266 264.57 283.219 270.253C288.921 273.533 291.549 273.52 295.28 270.055C301.9 263.865 308.449 257.542 315.067 251.231C319.012 247.443 321.468 242.674 321.7 236.519C321.786 234.231 321.397 231.802 321.516 229.42C323.161 236.001 325.223 242.618 326.34 249.146C327.536 256.134 325.508 261.887 321.336 266.099C314 273.449 306.423 280.484 298.866 287.459C296.218 289.886 292.593 289.175 288.758 286.993C283.763 284.162 278.771 281.327 273.823 278.397C259.56 270.029 245.315 261.716 231.056 253.54C228.507 252.09 226.44 250.249 225.32 247.624C223.961 243.076 222.608 238.528 221.229 233.981C221.142 233.693 220.856 233.412 220.662 233.128C220.565 232.806 220.468 232.485 220.371 232.164L220.372 232.162Z" fill="#A7FFEA"/>
<path d="M231.404 189.274C231.584 188.945 231.653 188.695 231.817 188.536C235.835 184.646 239.723 180.6 243.933 176.863C248.291 172.975 253.641 170.493 260.164 170.061C266.244 169.658 272.331 171.275 278.323 174.392C281.219 175.906 284.087 177.602 286.813 179.497C291.218 182.57 293.252 188.405 291.623 192.493C291.259 193.405 290.635 193.497 289.665 192.98C288.32 192.264 286.979 191.534 285.623 190.853C271.931 184.03 260.422 184.801 251.04 192.793C249.549 194.054 248.086 195.344 246.544 196.542C246.234 196.782 245.544 196.908 245.161 196.71C240.85 194.493 236.564 192.214 232.275 189.953C232.018 189.818 231.798 189.585 231.404 189.274V189.274Z" fill="#A7FFEA"/>
</g>
</g>
<defs>
<clipPath id="clip0_7143_348">
<rect width="1183" height="1000" fill="white"/>
</clipPath>
<clipPath id="clip1_7143_348">
<rect width="278.447" height="292.949" fill="white" transform="translate(122 96)"/>
</clipPath>
</defs>
</svg>
